<svg xmlns="http://www.w3.org/2000/svg" xmlns:xlink="http://www.w3.org/1999/xlink" width="1440" zoomAndPan="magnify" viewBox="0 0 1080 67.499998" height="90" preserveAspectRatio="xMidYMid meet" version="1.0"><defs><clipPath id="188ecf14b2"><path d="M 3.96875 0 L 1076.027344 0 L 1076.027344 67.003906 L 3.96875 67.003906 Z M 3.96875 0 " clip-rule="nonzero"/></clipPath><clipPath id="c954870395"><path d="M 1078.703125 71.03125 L 0.691406 68.214844 L 1.304688 -165.554688 L 1079.316406 -162.734375 Z M 1078.703125 71.03125 " clip-rule="nonzero"/></clipPath><clipPath id="de57134e2e"><path d="M 1078.703125 71.03125 L 0.691406 68.214844 L 1.304688 -165.554688 L 1079.316406 -162.734375 Z M 1078.703125 71.03125 " clip-rule="nonzero"/></clipPath><clipPath id="37371cc908"><path d="M 3.96875 0 L 1076.027344 0 L 1076.027344 67 L 3.96875 67 Z M 3.96875 0 " clip-rule="nonzero"/></clipPath><clipPath id="4371878ddb"><path d="M 1078.703125 70.289062 L 0.691406 67.46875 L 1.304688 -166.296875 L 1079.316406 -163.480469 Z M 1078.703125 70.289062 " clip-rule="nonzero"/></clipPath><clipPath id="2b1d02e532"><path d="M 1078.703125 70.289062 L 0.691406 67.46875 L 1.304688 -166.296875 L 1079.316406 -163.480469 Z M 1078.703125 70.289062 " clip-rule="nonzero"/></clipPath></defs><g clip-path="url(#188ecf14b2)"><g clip-path="url(#c954870395)"><g clip-path="url(#de57134e2e)"><path fill="#ffffff" d="M 1078.738281 58.035156 L 1053.015625 46.828125 C 1027.289062 35.503906 975.84375 13.089844 924.570312 15.710938 C 873.175781 18.332031 822.078125 46.226562 770.660156 58.070312 C 719.363281 69.914062 667.867188 65.707031 616.625 57.425781 C 565.257812 49.148438 514.265625 36.558594 462.875 38.699219 C 411.601562 40.722656 360.054688 57.355469 308.8125 48 C 257.449219 38.761719 206.515625 3.410156 155.132812 2.320312 C 103.867188 1.226562 52.277344 34.152344 26.480469 50.734375 L 0.683594 67.195312 L 1.292969 -165.175781 L 27.042969 -165.109375 C 52.796875 -165.042969 104.300781 -164.910156 155.570312 -164.773438 C 206.953125 -164.640625 257.980469 -164.507812 309.367188 -164.371094 C 360.632812 -164.238281 412.136719 -164.101562 463.402344 -163.96875 C 514.789062 -163.835938 565.816406 -163.703125 617.203125 -163.566406 C 668.46875 -163.433594 719.972656 -163.296875 771.238281 -163.164062 C 822.625 -163.03125 873.652344 -162.898438 925.039062 -162.761719 C 976.304688 -162.628906 1027.808594 -162.492188 1053.5625 -162.425781 L 1079.3125 -162.359375 Z M 1078.738281 58.035156 " fill-opacity="1" fill-rule="nonzero"/></g></g></g><g clip-path="url(#37371cc908)"><g clip-path="url(#4371878ddb)"><g clip-path="url(#2b1d02e532)"><path fill="#0b0425" d="M 1078.738281 57.292969 L 1053.015625 46.085938 C 1027.289062 34.757812 975.84375 12.34375 924.570312 14.964844 C 873.175781 17.585938 822.078125 45.480469 770.660156 57.324219 C 719.363281 69.167969 667.867188 64.960938 616.625 56.683594 C 565.257812 48.402344 514.265625 35.8125 462.875 37.953125 C 411.601562 39.976562 360.054688 56.609375 308.8125 47.253906 C 257.449219 38.015625 206.515625 2.667969 155.132812 1.574219 C 103.867188 0.484375 52.277344 33.40625 26.480469 49.988281 L 0.683594 66.453125 L 1.292969 -165.921875 L 27.042969 -165.855469 C 52.796875 -165.789062 104.300781 -165.652344 155.570312 -165.519531 C 206.953125 -165.382812 257.980469 -165.25 309.367188 -165.117188 C 360.632812 -164.984375 412.136719 -164.847656 463.402344 -164.714844 C 514.789062 -164.578125 565.816406 -164.445312 617.203125 -164.3125 C 668.46875 -164.175781 719.972656 -164.042969 771.238281 -163.910156 C 822.625 -163.773438 873.652344 -163.640625 925.039062 -163.507812 C 976.304688 -163.371094 1027.808594 -163.238281 1053.5625 -163.171875 L 1079.3125 -163.101562 Z M 1078.738281 57.292969 " fill-opacity="1" fill-rule="nonzero"/></g></g></g></svg>