<svg xmlns="http://www.w3.org/2000/svg" xmlns:xlink="http://www.w3.org/1999/xlink" width="1366" zoomAndPan="magnify" viewBox="0 0 1024.5 576" height="768" preserveAspectRatio="xMidYMid meet" version="1.0"><defs><clipPath id="43fad872cf"><path d="M 3 180 L 1021 180 L 1021 507 L 3 507 Z M 3 180 " clip-rule="nonzero"/></clipPath><clipPath id="7c18b34f35"><path d="M -9.746094 192.238281 L 560.980469 -298.402344 L 1052.597656 273.460938 L 481.871094 764.101562 Z M -9.746094 192.238281 " clip-rule="nonzero"/></clipPath><clipPath id="a1636fc26a"><path d="M -9.746094 192.238281 L 560.980469 -298.402344 L 1052.597656 273.460938 L 481.871094 764.101562 Z M -9.746094 192.238281 " clip-rule="nonzero"/></clipPath><clipPath id="5e75121a20"><path d="M -9.746094 192.238281 L 560.980469 -298.402344 L 1052.597656 273.460938 L 481.871094 764.101562 Z M -9.746094 192.238281 " clip-rule="nonzero"/></clipPath></defs><g clip-path="url(#43fad872cf)"><g clip-path="url(#7c18b34f35)"><g clip-path="url(#a1636fc26a)"><g clip-path="url(#5e75121a20)"><path fill="#000000" d="M 889.742188 196.152344 C 867.179688 197.65625 845.34375 203.703125 824.703125 212.300781 L 822.398438 213.089844 L 820.652344 213.597656 L 818.917969 213.894531 L 817.300781 214.09375 L 815.796875 214.195312 L 813.980469 214.164062 C 813.34375 214.117188 812.707031 214.066406 812.066406 214.019531 C 811.429688 213.972656 810.90625 213.824219 810.382812 213.679688 L 808.714844 213.125 L 807.160156 212.472656 C 806.539062 212.210938 805.917969 211.953125 805.507812 211.707031 L 804.066406 210.957031 C 801.414062 209.257812 798.648438 207.660156 795.882812 206.0625 C 780.710938 197.433594 763.59375 187.695312 744.707031 187.230469 C 708.011719 186.167969 680.058594 220.9375 672.421875 254.144531 C 671.449219 258.558594 670.6875 262.992188 670.136719 267.441406 C 669.648438 269.648438 669.261719 271.972656 668.773438 274.179688 C 668.304688 276.175781 667.71875 278.269531 667.34375 280.378906 C 666.644531 282.570312 666.058594 284.664062 665.457031 286.972656 C 664.660156 289.050781 663.960938 291.242188 663.164062 293.320312 C 662.363281 295.398438 661.335938 297.671875 660.425781 299.847656 C 659.429688 301.695312 658.535156 303.660156 657.539062 305.507812 C 656.316406 307.554688 655.09375 309.601562 653.757812 311.746094 C 652.433594 313.675781 651.113281 315.605469 649.792969 317.539062 C 648.46875 319.46875 646.625 321.253906 644.976562 323.269531 L 639.753906 328.753906 L 633.90625 333.976562 L 627.554688 338.84375 C 582.925781 367.863281 536.296875 393.632812 485.714844 409.484375 C 468.964844 414.738281 451.785156 418.570312 434.503906 420.902344 C 432.667969 418.304688 430.832031 415.707031 429 413.109375 C 413.496094 390.449219 400.179688 365.710938 387.4375 341.871094 C 378.449219 324.945312 369.070312 307.558594 358.890625 290.863281 C 347.480469 272.039062 333.058594 250.640625 312.84375 235.214844 C 293.230469 220.265625 270.671875 213.214844 249.972656 215.5 C 245.933594 215.195312 241.976562 215.214844 237.988281 215.664062 C 233.851562 215.246094 229.664062 215.460938 225.578125 215.796875 C 222.078125 215.425781 218.546875 215.476562 215.113281 215.644531 C 214.574219 215.710938 214.035156 215.777344 213.492188 215.84375 C 210.84375 215.539062 207.964844 215.425781 205.1875 215.429688 C 203.683594 215.53125 202.292969 215.535156 200.789062 215.632812 C 198.988281 215.390625 197.074219 215.246094 195.261719 215.214844 C 192.808594 215.136719 190.453125 215.171875 188.199219 215.324219 C 187.25 215.144531 186.398438 215.082031 185.335938 215 C 182.046875 214.644531 178.628906 214.601562 175.410156 214.785156 C 171.074219 214.136719 166.609375 213.800781 162.210938 214.003906 C 157.78125 213.238281 153.21875 212.789062 148.738281 212.664062 C 144.109375 211.671875 139.5625 211.007812 134.984375 210.769531 C 130.273438 209.453125 125.527344 208.558594 120.769531 207.878906 C 116.074219 206.347656 111.363281 205.03125 106.519531 204.023438 C 101.859375 202.066406 96.964844 200.308594 92.15625 198.875 C 86.394531 195.875 80.488281 193.398438 74.46875 191.019531 C 51.515625 182.121094 27.390625 178.804688 3.390625 180.945312 L 3.339844 181.582031 C 32.722656 178.992188 62.128906 184.527344 88.621094 197.539062 C 82.554688 195.796875 76.453125 194.484375 70.335938 193.378906 C 53.882812 190.425781 34.304688 189.160156 9.058594 189.390625 L 9.011719 190.03125 C 34.257812 189.800781 53.832031 191.0625 70.285156 194.015625 C 77.566406 195.316406 84.8125 197.039062 92.027344 199.1875 C 93.777344 200.066406 95.414062 201.046875 97.164062 201.925781 C 91.359375 200.953125 85.09375 200.375 78.292969 199.859375 C 68.398438 199.21875 57.507812 199.039062 47.042969 198.890625 C 36.578125 198.738281 25.148438 198.625 14.617188 197.9375 L 14.570312 198.574219 C 25.101562 199.261719 36.203125 199.460938 46.878906 199.625 C 57.558594 199.789062 68.234375 199.957031 78.128906 200.597656 C 85.472656 201.042969 92.355469 201.882812 98.589844 202.890625 C 100.535156 204 102.269531 205.09375 104.105469 206.300781 C 98.347656 206.078125 92.347656 206.265625 85.921875 206.421875 C 81.851562 206.542969 77.664062 206.761719 73.152344 207.0625 C 56.3125 207.820312 37.101562 208.828125 20.171875 206.480469 L 20.125 207.117188 C 37.265625 209.480469 56.476562 208.472656 73.316406 207.714844 C 77.8125 207.628906 82 207.410156 86.183594 207.191406 C 92.9375 206.953125 99.25 206.894531 105.332031 207.035156 C 107.261719 208.355469 109.195312 209.675781 111.125 211 C 105.421875 211.53125 99.699219 212.273438 93.976562 213.019531 L 92.570312 213.230469 C 72.480469 215.992188 47.417969 219.441406 25.957031 214.828125 L 25.796875 215.566406 C 47.371094 220.082031 72.429688 216.628906 92.734375 213.886719 L 94.140625 213.671875 C 99.976562 212.828125 105.910156 212.101562 111.945312 211.488281 C 113.972656 212.925781 115.890625 214.457031 117.804688 215.992188 C 113.671875 216.964844 109.4375 217.820312 105.300781 218.789062 L 102.03125 219.613281 C 79.394531 224.957031 53.402344 229.410156 31.726562 223.390625 L 31.464844 224.011719 C 53.351562 230.046875 79.460938 225.496094 102.097656 220.152344 L 105.367188 219.328125 C 109.828125 218.277344 114.175781 217.324219 118.527344 216.367188 C 120.441406 217.902344 122.453125 219.550781 124.253906 221.183594 C 121.738281 221.957031 119.109375 222.828125 116.6875 223.714844 C 114.382812 224.5 112.195312 225.191406 109.890625 225.980469 C 79.097656 235.945312 55.441406 237.792969 37.296875 231.71875 L 37.023438 232.554688 C 55.261719 238.742188 79.035156 236.796875 109.941406 226.730469 L 116.738281 224.464844 C 119.371094 223.59375 122.117188 222.625 124.746094 221.757812 C 126.648438 223.503906 128.546875 225.25 130.445312 226.996094 L 126.800781 228.539062 C 123.714844 229.800781 120.722656 231.179688 117.632812 232.445312 C 96.75 241.449219 66.613281 249.863281 42.9375 240.59375 L 42.675781 241.214844 C 66.546875 250.714844 96.800781 242.203125 117.980469 233.539062 C 121.066406 232.273438 124.269531 230.914062 127.148438 229.632812 L 131.019531 227.894531 C 131.820312 228.597656 132.507812 229.398438 133.3125 230.101562 C 134.507812 231.257812 135.488281 232.402344 136.570312 233.660156 L 136.457031 233.757812 C 132.894531 235.628906 129.21875 237.59375 125.445312 239.449219 C 108.125 247.972656 74.753906 260.953125 48.507812 248.921875 L 48.25 249.546875 C 74.804688 261.707031 108.289062 248.628906 125.839844 239.90625 C 129.613281 238.050781 133.289062 236.085938 136.851562 234.214844 L 137.078125 234.019531 C 138.847656 236.078125 140.714844 238.25 142.484375 240.308594 C 139.460938 242.109375 136.441406 243.914062 133.417969 245.714844 C 119.105469 254.042969 82.703125 271.816406 54.082031 257.253906 L 53.820312 257.878906 C 82.640625 272.667969 119.371094 254.808594 133.792969 246.386719 C 136.816406 244.582031 139.953125 242.679688 142.976562 240.878906 C 144.84375 243.050781 146.597656 245.320312 148.234375 247.691406 C 145.980469 249.230469 143.613281 250.867188 141.359375 252.410156 C 130.003906 259.78125 90.40625 283.089844 59.753906 265.703125 L 59.492188 266.324219 C 90.457031 283.84375 130.285156 260.339844 141.867188 252.769531 C 144.121094 251.226562 146.488281 249.589844 148.742188 248.050781 C 150.59375 250.433594 152.234375 252.804688 153.96875 255.285156 C 152.386719 256.449219 151.015625 257.628906 149.429688 258.792969 C 125.535156 276.550781 90.855469 289.859375 65.519531 274.261719 L 65.046875 274.867188 C 90.695312 290.59375 125.601562 277.089844 149.707031 259.347656 C 151.292969 258.183594 152.761719 257.117188 154.25 255.839844 C 155.984375 258.324219 157.609375 260.90625 159.328125 263.601562 C 158.644531 264.191406 157.957031 264.78125 157.15625 265.46875 C 133.820312 284.339844 97.332031 300.398438 70.964844 282.90625 L 70.605469 283.410156 C 97.285156 301.035156 133.984375 284.992188 157.550781 265.925781 L 159.609375 264.15625 C 161.328125 266.851562 163.050781 269.546875 164.558594 272.226562 C 151.167969 283.9375 135.859375 292.722656 121.445312 296.765625 C 104.070312 301.761719 88.5 299.835938 76.535156 291.234375 L 76.160156 291.957031 C 88.4375 300.6875 104.121094 302.511719 121.707031 297.535156 C 136.238281 293.394531 151.546875 284.609375 165.050781 272.800781 C 169.609375 280.414062 174.066406 287.914062 178.410156 295.511719 C 190.035156 315.738281 201.921875 336.734375 217.371094 354.46875 C 240.089844 380.667969 270.371094 400.164062 306.148438 411.953125 C 312.054688 414.433594 317.976562 416.695312 324.128906 418.765625 C 329.824219 421.226562 335.746094 423.492188 341.796875 425.445312 C 347.804688 428.035156 353.9375 430.316406 360.300781 432.402344 C 366.09375 434.976562 372.230469 437.257812 378.382812 439.324219 C 384.074219 441.785156 389.785156 444.035156 395.722656 446.085938 C 401.515625 448.664062 407.226562 450.910156 413.28125 452.867188 C 419.074219 455.441406 424.78125 457.691406 430.722656 459.742188 C 436.105469 462.074219 441.601562 464.304688 447.015625 466.210938 C 452.695312 468.886719 458.617188 471.148438 464.554688 473.203125 C 470.136719 475.761719 475.847656 478.011719 481.6875 479.949219 C 487.265625 482.507812 493.074219 484.871094 498.914062 486.808594 C 504.183594 489.238281 509.683594 491.46875 515.210938 493.277344 C 521.707031 496.441406 528.464844 498.980469 535.351562 501.214844 C 558.238281 508.179688 582.585938 508.523438 605.632812 502.03125 C 629.871094 495.308594 649.175781 481.695312 661.394531 462.839844 C 681.703125 431.664062 679.941406 391.226562 676.230469 359.625 C 675.601562 353.804688 674.773438 347.753906 674.027344 342.03125 C 672.574219 331.554688 671.234375 320.976562 670.433594 310.332031 C 680.363281 303.382812 690.292969 296.4375 700.226562 289.492188 C 711.742188 281.378906 723.597656 272.976562 735.328125 264.882812 C 759.238281 248.300781 785.441406 231.144531 813.367188 218.074219 C 826.363281 227.179688 838.429688 237.285156 850.300781 247.160156 C 867.488281 261.609375 885.1875 276.414062 905.382812 287.882812 C 924.449219 298.730469 944.933594 306.371094 963.398438 309.582031 C 986.511719 313.574219 1005.75 310.75 1020.601562 300.96875 L 1020.207031 300.511719 C 988.941406 321.027344 940.488281 307.210938 905.742188 287.375 C 885.761719 275.921875 868.0625 261.117188 850.757812 246.769531 C 839.097656 236.90625 827.03125 226.800781 814.132812 217.808594 L 814.363281 217.613281 C 828.273438 225.933594 841.222656 235.679688 854.792969 245.683594 C 858.738281 248.652344 862.894531 251.640625 867.054688 254.625 C 880.003906 264.371094 893.652344 273.3125 907.808594 281.222656 C 921.574219 288.675781 942.632812 298.605469 965.351562 303.53125 C 988.070312 308.453125 1006.351562 307.054688 1020.386719 299.5625 L 1020.105469 299.007812 C 983.558594 318.695312 925.105469 290.011719 908.167969 280.714844 C 894.011719 272.804688 880.363281 263.863281 867.414062 254.121094 C 863.253906 251.132812 859.210938 248.046875 855.265625 245.078125 C 842.300781 235.546875 829.140625 225.785156 815.144531 217.136719 L 815.375 216.941406 C 831.019531 224.964844 845.585938 234.511719 860.777344 244.316406 C 863.527344 246.128906 866.175781 247.824219 868.925781 249.636719 C 881.777344 257.875 895.441406 266.605469 910.351562 274.46875 C 932.574219 285.980469 987.75 311.316406 1020.398438 297.960938 L 1020.121094 297.402344 C 987.894531 310.792969 932.933594 285.472656 910.710938 273.960938 C 895.800781 266.097656 882.132812 257.371094 869.285156 249.128906 C 866.535156 247.316406 863.882812 245.621094 861.136719 243.808594 C 846.042969 234.117188 831.574219 224.6875 816.144531 216.679688 L 816.257812 216.582031 C 834.289062 224.144531 851.308594 233.765625 869.046875 243.765625 L 874.171875 246.71875 C 886.578125 253.75 899.488281 261.140625 912.988281 267.824219 C 947.304688 284.847656 993.671875 303.636719 1020.511719 296.472656 L 1020.347656 295.816406 C 993.738281 302.789062 947.46875 284.113281 913.25 267.203125 C 899.75 260.515625 886.835938 253.128906 874.433594 246.097656 L 869.308594 243.144531 C 851.78125 233.160156 834.859375 223.652344 817.042969 216.105469 L 817.15625 216.007812 C 836.246094 222.261719 854.410156 230.902344 872.753906 239.984375 C 877.8125 242.398438 882.851562 245.023438 888.105469 247.664062 C 896.957031 252.179688 906.121094 256.828125 915.515625 261.28125 C 951.21875 278.300781 995.527344 297.46875 1020.394531 295.179688 L 1020.230469 294.527344 C 995.152344 296.800781 948.582031 276.394531 915.660156 260.757812 C 906.269531 256.304688 897.105469 251.65625 888.25 247.140625 C 882.996094 244.5 878.054688 241.988281 872.902344 239.460938 C 854.753906 230.605469 836.804688 221.980469 817.925781 215.746094 C 838.191406 220.589844 856.988281 227.890625 874.496094 235.304688 C 884.234375 239.460938 894.261719 243.960938 904.703125 248.703125 C 909.039062 250.742188 913.488281 252.683594 917.925781 254.835938 L 925.058594 258.046875 C 959.683594 273.808594 998.96875 291.53125 1020.179688 293.773438 L 1020.226562 293.136719 C 999.015625 290.890625 959.84375 273.074219 925.320312 257.425781 L 918.183594 254.210938 L 904.964844 248.082031 C 894.523438 243.339844 884.609375 238.742188 874.757812 234.683594 C 857.445312 227.496094 838.957031 220.328125 819.230469 215.414062 C 836.667969 218.121094 854.90625 222.921875 876.355469 230.527344 C 890.929688 235.691406 906.050781 242.179688 920.449219 248.289062 C 935.355469 254.761719 951.0625 261.933594 966.246094 268.960938 C 987.632812 278.808594 1007.875 288.246094 1020.179688 292.382812 L 1020.4375 291.761719 C 1008.152344 287.414062 987.894531 278.1875 966.507812 268.339844 C 951.324219 261.3125 935.613281 254.140625 920.707031 247.667969 C 906.425781 241.457031 891.191406 235.070312 876.613281 229.90625 C 858.503906 223.40625 839.953125 218.476562 820.964844 215.117188 C 840.410156 216.695312 859.59375 220.28125 878.210938 225.75 C 893.375 230.210938 908.363281 235.617188 922.859375 241.84375 C 961.847656 257.832031 1003.105469 280.617188 1019.945312 291.191406 L 1020.304688 290.683594 C 1003.464844 280.109375 962.109375 257.210938 923.117188 241.222656 C 908.507812 235.09375 893.523438 229.6875 878.355469 225.226562 C 860.265625 219.90625 841.714844 216.367188 822.910156 214.839844 C 842.15625 214.796875 861.339844 216.992188 880.050781 221.183594 C 895.492188 224.8125 910.640625 229.484375 925.480469 235.414062 C 962.246094 249.738281 1002.816406 273.113281 1020.042969 289.914062 L 1020.5 289.523438 C 1003.273438 272.71875 962.605469 249.230469 925.839844 234.90625 C 911 228.976562 895.851562 224.304688 880.410156 220.679688 C 862.121094 216.515625 843.460938 214.464844 824.757812 214.441406 C 843.902344 212.894531 863.199219 213.605469 882.21875 216.539062 C 897.839844 219.214844 913.347656 223.378906 928.105469 228.984375 C 967.746094 243.417969 1005.554688 267.972656 1020.140625 288.640625 L 1020.597656 288.246094 C 1006.011719 267.582031 968.105469 242.910156 928.363281 228.363281 C 913.394531 222.742188 898 218.480469 882.265625 215.902344 C 863.882812 213.015625 845.339844 212.257812 826.75 213.523438 C 845.582031 210.457031 864.972656 209.890625 883.976562 211.648438 C 899.777344 213.375 915.542969 216.917969 930.53125 222.324219 C 971.675781 236.660156 1007.671875 262.574219 1019.941406 287.019531 L 1020.496094 286.742188 C 1008.03125 262.066406 972.050781 235.9375 930.691406 221.589844 C 915.589844 216.28125 899.9375 212.636719 883.925781 210.894531 C 865.464844 209.074219 846.921875 209.703125 828.644531 212.492188 C 847.261719 208.019531 866.539062 206.160156 885.835938 206.871094 C 901.8125 207.648438 917.726562 210.667969 933.054688 215.78125 C 975.410156 229.671875 1009.480469 257.046875 1019.824219 285.730469 L 1020.476562 285.566406 C 1020.296875 285.125 1020.117188 284.683594 1020.035156 284.355469 L 1020.476562 284.175781 C 1020.296875 283.734375 1020.214844 283.40625 1020.148438 282.867188 L 1020.472656 282.785156 C 1010.132812 224.277344 944.546875 192.382812 889.742188 196.152344 Z M 157.660156 241.773438 C 160.144531 240.039062 162.625 238.300781 165.109375 236.5625 C 166.894531 238.410156 168.679688 240.253906 170.449219 242.3125 L 163.179688 247.964844 L 162.835938 248.257812 C 161.871094 246.902344 160.691406 245.53125 159.609375 244.273438 C 159.035156 243.375 158.347656 242.574219 157.660156 241.773438 Z M 145.179688 228.644531 C 143.378906 227.011719 141.675781 225.492188 139.761719 223.960938 C 142.082031 222.957031 144.386719 222.171875 146.804688 221.285156 C 148.734375 222.605469 150.667969 223.925781 152.484375 225.347656 C 150.050781 226.445312 147.714844 227.660156 145.378906 228.875 C 145.277344 228.757812 145.277344 228.757812 145.179688 228.644531 Z M 125.667969 213.808594 C 124.03125 212.828125 122.394531 211.851562 120.757812 210.871094 C 122.800781 210.703125 124.828125 210.75 126.96875 210.699219 C 128.835938 211.480469 130.800781 212.378906 132.761719 213.273438 C 130.605469 213.539062 128.546875 213.917969 126.386719 214.183594 C 126.175781 214.167969 125.976562 213.9375 125.667969 213.808594 Z M 119.726562 210.367188 C 117.976562 209.484375 116.339844 208.507812 114.585938 207.625 C 116.5 207.769531 118.300781 208.011719 120.097656 208.253906 C 121.980469 208.824219 123.746094 209.492188 125.398438 210.257812 C 123.585938 210.230469 121.65625 210.296875 119.726562 210.367188 Z M 139.546875 212.609375 C 137.714844 212.792969 135.886719 212.976562 134.054688 213.160156 C 132.402344 212.390625 130.652344 211.511719 128.882812 210.84375 C 130.699219 210.875 132.613281 211.019531 134.425781 211.046875 C 136.097656 211.601562 137.878906 212.058594 139.546875 212.609375 Z M 165.125 215.078125 L 166.597656 215.402344 C 164.863281 215.699219 163.132812 215.996094 161.496094 216.40625 C 159.941406 215.753906 158.273438 215.203125 156.605469 214.648438 C 158.320312 214.5625 160.039062 214.480469 161.753906 214.394531 C 162.917969 214.589844 163.964844 214.882812 165.125 215.078125 Z M 175.050781 215.292969 C 176.636719 215.519531 178.109375 215.84375 179.582031 216.167969 C 177.847656 216.464844 176.214844 216.878906 174.578125 217.289062 C 173.023438 216.636719 171.453125 216.195312 169.882812 215.757812 C 171.503906 215.558594 173.21875 215.476562 175.050781 215.292969 Z M 187.839844 215.832031 C 189.425781 216.058594 190.898438 216.382812 192.484375 216.609375 C 190.75 216.90625 189.214844 217.433594 187.578125 217.84375 C 186.007812 217.402344 184.453125 216.75 182.882812 216.3125 C 184.503906 216.113281 186.121094 215.914062 187.839844 215.832031 Z M 200.332031 216.027344 C 201.917969 216.253906 203.40625 216.367188 204.878906 216.691406 C 203.242188 217.101562 201.722656 217.414062 200.1875 217.941406 C 198.617188 217.5 197.160156 216.960938 195.6875 216.636719 C 197.308594 216.4375 198.710938 216.226562 200.332031 216.027344 Z M 213.035156 216.238281 C 214.523438 216.351562 215.898438 216.5625 217.371094 216.886719 C 215.851562 217.199219 214.214844 217.609375 212.792969 218.035156 C 211.222656 217.597656 209.867188 217.175781 208.394531 216.847656 C 209.914062 216.535156 211.417969 216.4375 213.035156 216.238281 Z M 224.695312 216.15625 L 225.234375 216.089844 C 226.722656 216.203125 228.097656 216.414062 229.683594 216.640625 C 228.164062 216.953125 226.742188 217.378906 225.320312 217.808594 C 223.847656 217.480469 222.488281 217.058594 221.015625 216.734375 C 221.996094 216.488281 223.289062 216.371094 224.695312 216.15625 Z M 237.644531 215.957031 C 239.132812 216.070312 240.507812 216.28125 241.878906 216.492188 C 240.359375 216.804688 238.9375 217.230469 237.402344 217.757812 C 235.929688 217.433594 234.574219 217.007812 233.101562 216.683594 C 233.640625 216.617188 234.082031 216.4375 234.507812 216.46875 C 235.601562 216.125 236.566406 216.089844 237.644531 215.957031 Z M 249.628906 215.792969 C 257.070312 216.355469 264.332031 217.867188 271.304688 220.425781 C 281.398438 224.074219 290.824219 229.488281 299.304688 236.117188 C 318.574219 251.363281 332.519531 271.980469 343.550781 290.132812 C 353.0625 305.816406 361.964844 322.417969 370.605469 338.25 C 383.363281 361.875 396.5 386.171875 411.921875 408.503906 C 415.097656 413.128906 418.507812 417.554688 421.914062 421.980469 C 418.253906 422.347656 414.707031 422.613281 411.15625 422.878906 C 405.667969 416.265625 400.703125 409.796875 396.363281 403.589844 C 380.8125 381.566406 367.871094 357.5 355.195312 334.199219 C 347.128906 319.265625 338.78125 303.773438 329.847656 288.988281 C 319.210938 271.292969 305.753906 251.25 287.121094 236.050781 C 279.066406 229.457031 269.953125 224.171875 260.199219 220.226562 C 255.421875 218.371094 250.402344 216.921875 245.445312 216.011719 C 246.71875 216.109375 248.125 215.894531 249.628906 215.792969 Z M 425.003906 453.324219 C 427.753906 453.746094 430.386719 454.265625 433.148438 454.472656 C 435.179688 455.910156 437.210938 457.347656 439.238281 458.78125 C 436.605469 458.261719 433.972656 457.742188 431.339844 457.222656 C 429.195312 455.886719 427.050781 454.546875 425.003906 453.324219 Z M 414.421875 450.492188 C 412.261719 449.367188 410.117188 448.03125 407.972656 446.691406 C 410.507812 447.097656 413.042969 447.503906 415.691406 447.808594 C 417.722656 449.246094 419.75 450.683594 421.78125 452.117188 C 419.671875 451.746094 417.464844 451.257812 415.355469 450.882812 Z M 156.675781 227.910156 C 155.773438 227.09375 154.757812 226.375 153.746094 225.65625 C 155.964844 224.542969 158.171875 223.640625 160.492188 222.636719 C 162.324219 223.847656 164.160156 225.054688 166.089844 226.375 C 163.753906 227.589844 161.417969 228.800781 159.179688 230.128906 C 158.492188 229.328125 157.589844 228.511719 156.675781 227.910156 Z M 154.257812 218.855469 C 156.105469 219.847656 158.054688 220.957031 159.789062 222.050781 C 157.582031 222.953125 155.261719 223.953125 153.15625 224.96875 C 151.335938 223.550781 149.40625 222.230469 147.574219 221.019531 C 149.878906 220.234375 152.066406 219.542969 154.257812 218.855469 Z M 146.96875 220.546875 C 145.132812 219.339844 143.300781 218.132812 141.351562 217.023438 C 143.527344 216.546875 145.585938 216.167969 147.761719 215.691406 C 149.625 216.472656 151.476562 217.46875 153.4375 218.363281 C 151.347656 219.167969 149.15625 219.859375 146.96875 220.546875 Z M 661.09375 309.414062 L 661.597656 306.992188 C 662.285156 306.402344 662.871094 305.699219 663.671875 305.011719 L 663.480469 307.5625 Z M 210.738281 241.078125 C 209.050781 239.347656 207.25 237.714844 205.445312 236.082031 C 207.601562 234.429688 209.644531 232.871094 211.898438 231.332031 C 215.84375 234.300781 219.675781 237.371094 223.164062 240.734375 C 237.523438 254.433594 248.539062 271.410156 257.359375 286.292969 C 263.425781 296.585938 269.359375 307.191406 275 317.453125 C 287.050781 339.101562 299.464844 361.632812 314.847656 381.609375 C 326.433594 396.703125 339.84375 410.222656 355.019531 421.632812 C 351.945312 421.292969 348.984375 420.855469 345.925781 420.304688 C 328.234375 408.277344 312.464844 393.402344 299.191406 376.578125 C 283.988281 357.042969 271.757812 334.953125 259.789062 313.628906 C 254.507812 304.25 249.144531 294.546875 243.539062 285.25 C 234.882812 271.019531 224.363281 254.617188 210.738281 241.078125 Z M 197.65625 241.589844 C 195.96875 239.855469 194.070312 238.109375 192.382812 236.378906 C 194.539062 234.722656 196.695312 233.070312 198.835938 231.628906 C 200.652344 233.046875 202.46875 234.46875 204.171875 235.988281 C 202 237.855469 199.828125 239.722656 197.65625 241.589844 Z M 180.023438 227.320312 C 181.855469 228.527344 183.675781 229.949219 185.492188 231.367188 C 183.238281 232.910156 180.984375 234.449219 178.730469 235.988281 C 176.925781 234.355469 175.242188 232.625 173.324219 231.089844 C 175.5625 229.761719 177.800781 228.4375 180.023438 227.320312 Z M 172.816406 230.730469 C 171.3125 229.441406 169.804688 228.152344 168.183594 226.960938 C 167.988281 226.734375 167.675781 226.601562 167.269531 226.359375 C 169.488281 225.242188 171.597656 224.226562 173.707031 223.210938 C 175.441406 224.300781 177.386719 225.410156 179.105469 226.71875 C 179.105469 226.71875 179.105469 226.71875 179.207031 226.832031 C 177.179688 228.175781 174.941406 229.503906 172.816406 230.730469 Z M 180.695312 226.945312 C 182.703125 225.8125 184.925781 224.699219 187.03125 223.679688 C 188.261719 224.414062 189.699219 225.164062 190.929688 225.898438 C 191.433594 226.257812 191.941406 226.617188 192.449219 226.976562 C 190.328125 228.207031 188.300781 229.550781 186.160156 230.992188 C 184.230469 229.667969 182.414062 228.25 180.695312 226.945312 Z M 186 231.726562 C 187.816406 233.148438 189.617188 234.78125 191.417969 236.414062 C 189.148438 238.164062 186.761719 240.015625 184.589844 241.882812 C 182.804688 240.039062 181.019531 238.195312 179.335938 236.460938 C 181.375 234.90625 183.628906 233.367188 186 231.726562 Z M 186.554688 231.449219 C 188.695312 230.007812 190.816406 228.777344 193.054688 227.449219 C 194.890625 228.65625 196.722656 229.863281 198.539062 231.285156 C 196.285156 232.824219 194.242188 234.382812 192.089844 236.035156 C 190.074219 234.386719 188.371094 232.867188 186.554688 231.449219 Z M 193.511719 227.058594 C 195.523438 225.925781 197.53125 224.792969 199.640625 223.777344 C 200.457031 224.265625 201.390625 224.660156 202.210938 225.148438 C 203.027344 225.636719 204.15625 226.257812 205.074219 226.859375 C 202.949219 228.089844 200.925781 229.433594 198.898438 230.777344 C 197.179688 229.472656 195.347656 228.265625 193.511719 227.058594 Z M 199.503906 231.25 C 201.53125 229.90625 203.667969 228.464844 205.792969 227.234375 C 207.625 228.445312 209.460938 229.652344 211.179688 230.957031 C 209.039062 232.398438 206.882812 234.054688 204.941406 235.722656 C 203.023438 234.191406 201.320312 232.671875 199.503906 231.25 Z M 213.816406 224.316406 C 215.160156 224.949219 216.386719 225.683594 217.710938 226.53125 C 215.589844 227.761719 213.777344 229.121094 211.75 230.464844 C 210.03125 229.160156 208.199219 227.953125 206.464844 226.859375 C 208.472656 225.726562 210.480469 224.597656 212.378906 223.5625 C 212.882812 223.921875 213.292969 224.167969 213.816406 224.316406 Z M 315.09375 381.199219 C 299.808594 361.339844 287.394531 338.804688 275.34375 317.15625 C 269.703125 306.894531 263.765625 296.292969 257.703125 286 C 248.882812 271.113281 237.867188 254.140625 223.40625 240.324219 C 219.917969 236.960938 216.203125 233.796875 212.242188 231.039062 C 214.265625 229.695312 216.292969 228.351562 218.316406 227.007812 C 224.554688 230.792969 230.21875 235.066406 235.621094 239.964844 C 250.816406 253.941406 262.324219 271.488281 271.535156 286.828125 C 278.175781 298.019531 284.570312 309.621094 290.785156 320.78125 C 302.917969 342.757812 315.414062 365.617188 330.765625 386.019531 C 340.972656 399.511719 352.554688 411.824219 365.421875 422.632812 C 362.234375 422.390625 359.160156 422.050781 355.871094 421.695312 C 340.597656 410.171875 326.875 396.523438 315.09375 381.199219 Z M 225.3125 223.578125 C 233.65625 227.738281 241.382812 233.023438 248.292969 239.210938 C 264.324219 253.464844 276.320312 271.582031 285.910156 287.59375 C 293.125 299.683594 300.089844 312.183594 306.667969 324.226562 C 318.980469 346.644531 331.671875 369.730469 346.992188 390.558594 C 355.726562 402.335938 365.585938 413.34375 376.378906 423.351562 C 373.074219 423.210938 369.886719 422.96875 366.582031 422.828125 C 353.402344 411.890625 341.628906 399.347656 331.320312 385.742188 C 315.96875 365.339844 303.457031 342.691406 291.339844 320.503906 C 285.125 309.34375 278.84375 297.644531 272.089844 286.550781 C 262.878906 271.210938 251.390625 253.449219 235.980469 239.457031 C 230.789062 234.578125 225.027344 230.1875 218.890625 226.515625 C 220.800781 225.269531 222.792969 224.351562 224.691406 223.316406 C 225 223.449219 225.214844 223.464844 225.3125 223.578125 Z M 366.730469 423.691406 C 368.746094 425.34375 370.757812 426.992188 372.886719 428.542969 C 369.8125 428.203125 366.851562 427.765625 363.890625 427.328125 C 361.765625 425.777344 359.621094 424.4375 357.605469 422.789062 C 360.46875 423.113281 363.542969 423.453125 366.730469 423.691406 Z M 367.792969 423.773438 C 370.984375 424.015625 374.285156 424.15625 377.378906 424.285156 C 379.277344 426.03125 381.390625 427.792969 383.289062 429.539062 C 380.097656 429.300781 377.023438 428.960938 373.835938 428.71875 C 371.820312 427.070312 369.808594 425.421875 367.792969 423.773438 Z M 378.441406 424.363281 C 381.742188 424.507812 384.949219 424.535156 388.367188 424.578125 C 390.152344 426.425781 392.148438 428.285156 394.148438 430.148438 C 390.941406 430.117188 387.753906 429.878906 384.5625 429.636719 C 382.453125 427.875 380.4375 426.226562 378.441406 424.363281 Z M 384.304688 430.257812 C 386.316406 431.90625 388.332031 433.554688 390.34375 435.203125 C 387.367188 434.980469 384.40625 434.542969 381.449219 434.105469 C 379.320312 432.554688 377.191406 431.003906 375.0625 429.453125 C 378.136719 429.792969 381.113281 430.019531 384.304688 430.257812 Z M 385.367188 430.339844 C 388.554688 430.578125 391.644531 430.707031 394.734375 430.832031 C 396.636719 432.578125 398.535156 434.328125 400.648438 436.089844 C 397.671875 435.867188 394.582031 435.738281 391.621094 435.300781 C 389.394531 433.636719 387.378906 431.988281 385.367188 430.339844 Z M 395.699219 430.800781 C 399.003906 430.941406 402.324219 430.871094 405.644531 430.800781 C 407.429688 432.648438 409.425781 434.507812 411.308594 436.46875 C 408.105469 436.441406 404.800781 436.296875 401.613281 436.054688 C 399.710938 434.308594 397.601562 432.546875 395.699219 430.800781 Z M 401.449219 436.792969 C 403.464844 438.441406 405.476562 440.089844 407.492188 441.738281 C 404.628906 441.414062 401.765625 441.09375 398.90625 440.769531 C 396.777344 439.21875 394.648438 437.667969 392.519531 436.117188 C 395.496094 436.34375 398.472656 436.566406 401.449219 436.792969 Z M 402.511719 436.871094 C 405.703125 437.113281 408.90625 437.140625 412.109375 437.167969 C 414.011719 438.917969 416.007812 440.777344 418.023438 442.425781 C 414.929688 442.300781 411.742188 442.058594 408.667969 441.71875 C 406.539062 440.167969 404.527344 438.519531 402.511719 436.871094 Z M 413.074219 437.136719 C 416.28125 437.164062 419.601562 437.09375 422.917969 437.023438 C 424.804688 438.984375 426.589844 440.828125 428.585938 442.691406 C 425.378906 442.660156 422.175781 442.632812 419.085938 442.507812 C 416.972656 440.742188 414.976562 438.882812 413.074219 437.136719 Z M 418.824219 443.128906 C 420.839844 444.777344 422.949219 446.539062 424.964844 448.191406 C 421.988281 447.964844 419.027344 447.527344 416.066406 447.089844 C 413.9375 445.539062 411.8125 443.988281 409.683594 442.4375 C 412.644531 442.875 415.734375 443.003906 418.824219 443.128906 Z M 419.886719 443.210938 C 422.976562 443.335938 426.183594 443.363281 429.386719 443.390625 C 431.386719 445.253906 433.382812 447.113281 435.382812 448.976562 C 432.289062 448.851562 429.199219 448.722656 426.125 448.382812 C 423.898438 446.71875 421.785156 444.957031 419.886719 443.210938 Z M 664.902344 297.191406 L 666.4375 295.277344 L 666.359375 297.730469 L 664.609375 299.628906 Z M 663.910156 300.429688 L 662.390625 302.132812 L 662.765625 300.023438 L 664.183594 298.207031 Z M 672.445312 279.375 C 686.636719 257.035156 705.476562 238.253906 725.503906 226.402344 C 733.445312 221.765625 742.058594 218.140625 750.996094 215.820312 C 768.226562 211.347656 784.839844 212.175781 800.261719 213.234375 C 802.171875 213.378906 804.085938 213.523438 806 213.667969 L 801.078125 213.722656 C 782.996094 213.960938 767.625 215.046875 751.871094 219.84375 C 742.996094 222.699219 734.367188 226.539062 726.414062 231.390625 C 706.710938 243.15625 687.25 261.675781 671.617188 283.265625 C 670.671875 284.480469 669.9375 285.707031 669.105469 286.820312 L 669.183594 284.367188 C 670.375 282.746094 671.351562 281.109375 672.445312 279.375 Z M 669.492188 283.105469 L 669.554688 280.867188 C 670.546875 279.015625 671.558594 276.957031 672.554688 275.105469 C 685.289062 252.230469 704.09375 232.484375 724.207031 220.960938 C 732.144531 216.320312 740.953125 212.925781 750.074219 211.046875 C 767.125 207.523438 783.214844 209.59375 799.703125 212.125 C 801.289062 212.351562 803.089844 212.59375 804.660156 213.03125 C 803.382812 212.9375 801.894531 212.824219 800.621094 212.726562 C 785.101562 211.554688 768.46875 210.941406 751.144531 215.296875 C 742.089844 217.714844 733.476562 221.339844 725.421875 226.074219 C 705.296875 237.8125 686.339844 256.691406 672.132812 279.246094 C 670.976562 280.441406 670.125 281.765625 669.492188 283.105469 Z M 807.867188 214.449219 C 805.9375 214.519531 803.992188 214.800781 802.0625 214.867188 C 786.773438 216.277344 770.363281 218.460938 753.121094 224.535156 C 744.328125 227.71875 735.898438 231.785156 728.039062 236.75 C 703.371094 251.992188 683.847656 272.753906 671.835938 287.453125 L 669.257812 290.464844 L 669.238281 287.898438 C 670.199219 286.472656 671.277344 284.953125 672.238281 283.527344 C 687.757812 262.035156 707.105469 243.613281 726.804688 231.847656 C 734.761719 226.996094 743.175781 223.140625 752.035156 220.496094 C 767.789062 215.699219 783.0625 214.5 801.03125 214.363281 C 803.269531 214.425781 805.625 214.386719 807.867188 214.449219 Z M 668.714844 287.75 L 667.507812 289.585938 L 667.78125 287.359375 L 668.875 285.625 Z M 668.730469 288.929688 L 668.769531 291.285156 L 667.347656 293.101562 C 667.414062 292.25 667.363281 291.5 667.523438 290.761719 C 667.785156 290.140625 668.257812 289.535156 668.730469 288.929688 Z M 666.53125 294 L 665.113281 295.816406 L 665.484375 293.707031 L 666.691406 291.875 Z M 667.152344 294.261719 L 668.6875 292.347656 L 668.707031 294.914062 L 666.960938 296.8125 Z M 669.390625 291.542969 L 672.34375 287.8125 C 684.355469 273.113281 703.652344 252.546875 728.320312 237.304688 C 736.175781 232.339844 744.492188 228.371094 753.285156 225.1875 C 770.429688 219 786.941406 216.933594 802.011719 215.503906 C 804.382812 215.257812 806.851562 215.121094 809.222656 214.875 C 807.066406 215.136719 804.890625 215.617188 802.734375 215.878906 C 789.410156 218.1875 771.820312 221.777344 754.058594 229.09375 C 745.449219 232.71875 737.214844 237.015625 729.355469 241.980469 C 710.046875 254.207031 690.613281 270.910156 671.859375 291.410156 L 669.523438 294.011719 C 669.359375 293.359375 669.324219 292.394531 669.390625 291.542969 Z M 672.660156 270.839844 C 683.941406 247.421875 702.710938 226.710938 722.808594 215.402344 C 730.84375 210.878906 739.636719 207.695312 748.9375 206.257812 C 765.808594 203.683594 781.511719 206.6875 798.835938 210.882812 C 800.304688 211.207031 801.566406 211.515625 802.925781 211.9375 C 801.761719 211.746094 800.8125 211.566406 799.652344 211.371094 C 783.167969 208.84375 766.960938 206.871094 749.910156 210.394531 C 740.789062 212.269531 731.980469 215.667969 723.828125 220.289062 C 703.601562 231.910156 684.796875 251.65625 671.945312 274.632812 C 671.082031 276.171875 670.332031 277.613281 669.582031 279.050781 L 669.726562 277.136719 C 670.507812 275.273438 671.421875 273.097656 672.660156 270.839844 Z M 669.742188 275.535156 L 669.851562 274.046875 C 670.683594 271.542969 671.613281 269.15625 672.65625 266.667969 C 682.609375 242.40625 700.773438 221.222656 721.394531 210.058594 C 729.644531 205.546875 738.519531 202.691406 747.789062 201.679688 C 764.707031 199.859375 780.414062 204.253906 797.949219 209.851562 C 798.996094 210.144531 800.140625 210.554688 801.1875 210.847656 C 800.453125 210.683594 799.71875 210.519531 798.980469 210.359375 C 781.640625 206.375 765.957031 203.160156 748.871094 205.71875 C 739.667969 207.269531 730.664062 210.4375 722.511719 215.058594 C 702.203125 226.351562 683.316406 247.164062 672.136719 270.691406 C 671.160156 272.328125 670.394531 273.980469 669.742188 275.535156 Z M 668.816406 280.703125 L 668.179688 282.046875 L 668.40625 280.460938 L 668.929688 279.214844 Z M 668.804688 282.304688 L 668.757812 284.335938 L 667.777344 285.972656 L 667.921875 284.058594 Z M 666.945312 287.082031 C 666.703125 287.492188 666.34375 288 666.195312 288.523438 L 666.421875 286.9375 L 667.058594 285.59375 Z M 666.933594 288.6875 L 666.789062 290.601562 L 665.695312 292.335938 L 666.050781 290.4375 C 666.199219 289.914062 666.460938 289.292969 666.933594 288.6875 Z M 664.75 293.546875 L 663.902344 294.871094 L 664.339844 293.300781 L 664.976562 291.960938 Z M 664.636719 295.035156 C 664.589844 295.671875 664.539062 296.308594 664.378906 297.046875 L 663.1875 298.667969 L 663.542969 296.769531 Z M 662.140625 299.761719 L 661.082031 301.074219 L 661.617188 299.617188 L 662.582031 298.191406 Z M 661.816406 301.234375 L 661.460938 303.132812 L 660.058594 304.738281 L 660.511719 302.953125 Z M 661.25 304.507812 L 660.878906 306.617188 L 659.148438 308.304688 L 659.730469 306.210938 Z M 659.109375 305.949219 L 658.050781 307.257812 L 658.585938 305.800781 L 659.550781 304.378906 C 659.289062 305 659.140625 305.523438 659.109375 305.949219 Z M 658.671875 307.519531 L 658.214844 309.300781 L 656.601562 310.890625 L 657.265625 309.125 Z M 657.90625 310.5625 L 657.320312 312.65625 L 655.378906 314.324219 L 656.0625 312.347656 Z M 655.554688 311.988281 L 654.28125 313.28125 L 654.917969 311.9375 L 656.09375 310.53125 Z M 655.019531 313.441406 L 654.234375 315.308594 L 652.519531 316.78125 L 653.285156 315.128906 Z M 650.566406 321.445312 L 652.835938 319.691406 L 652.136719 321.882812 L 649.652344 323.621094 Z M 648.640625 324.292969 L 646.273438 325.929688 L 647.265625 324.082031 L 649.421875 322.429688 Z M 651.085938 320.203125 L 651.984375 318.238281 L 654.042969 316.46875 L 653.359375 318.449219 Z M 651.476562 317.878906 L 649.992188 319.15625 L 650.738281 317.71875 L 652.128906 316.324219 Z M 650.824219 319.433594 L 650.058594 321.085938 L 648.132812 322.542969 L 649.109375 320.90625 Z M 646.875 323.625 L 645.289062 324.789062 L 646.136719 323.460938 L 647.625 322.183594 Z M 646.027344 324.949219 L 645.046875 326.585938 L 642.90625 328.03125 L 643.984375 326.507812 Z M 644.410156 327.929688 C 642.175781 332.035156 640.058594 336.046875 637.9375 340.054688 C 633.601562 347.957031 629.605469 355.566406 625.300781 363.046875 C 610.886719 388.363281 593.640625 414.320312 566.414062 433.75 C 540.769531 452.019531 505.710938 461.878906 470.34375 461.667969 C 468.347656 459.804688 466.347656 457.945312 464.253906 455.96875 C 496.722656 454.894531 528.285156 446.050781 553.214844 430.1875 C 581.949219 412.046875 601.644531 387.558594 618.5 363.921875 C 624.585938 355.507812 630.148438 346.949219 636.167969 337.996094 L 641.832031 329.550781 Z M 641.550781 328.996094 L 639.753906 330.144531 L 640.703125 328.933594 L 642.398438 327.671875 Z M 640.589844 330.421875 L 635.777344 337.539062 C 629.757812 346.492188 624.09375 354.9375 618.109375 363.464844 C 601.136719 387.199219 581.554688 411.589844 552.933594 429.632812 C 527.910156 445.382812 496.117188 454.417969 463.664062 455.28125 C 461.777344 453.320312 459.683594 451.347656 457.800781 449.386719 C 487.132812 447.433594 515.734375 439.542969 539.832031 426.183594 C 570.414062 409.039062 593.15625 385.3125 611.503906 364.570312 C 619.925781 354.945312 627.9375 345.070312 636.425781 334.59375 L 638.433594 332.074219 Z M 447.515625 449.679688 C 450.621094 449.59375 453.726562 449.507812 456.949219 449.324219 C 458.832031 451.28125 460.8125 453.355469 462.699219 455.316406 C 459.589844 455.402344 456.597656 455.390625 453.605469 455.378906 C 451.609375 453.515625 449.609375 451.65625 447.515625 449.679688 Z M 452.542969 455.296875 C 449.453125 455.171875 446.363281 455.042969 443.273438 454.917969 C 441.160156 453.15625 439.144531 451.503906 437.035156 449.742188 C 440.238281 449.769531 443.328125 449.898438 446.4375 449.8125 C 448.546875 451.574219 450.546875 453.4375 452.542969 455.296875 Z M 635.820312 334.121094 C 627.332031 344.597656 619.433594 354.371094 610.898438 364.097656 C 592.648438 384.953125 569.921875 408.464844 539.339844 425.613281 C 515.242188 438.972656 486.523438 446.960938 457.09375 448.800781 C 455.113281 446.726562 453.34375 444.667969 451.476562 442.496094 C 477.40625 440.285156 502.726562 433.429688 526.238281 422.164062 C 558.769531 406.128906 583.933594 384.296875 604.195312 365.085938 C 614.5625 355.179688 624.523438 345.027344 634.726562 334.46875 L 636.523438 333.320312 Z M 456.457031 448.75 C 453.238281 448.933594 450.128906 449.019531 447.023438 449.105469 C 445.027344 447.246094 443.042969 445.171875 441.0625 443.097656 C 444.285156 442.914062 447.503906 442.730469 450.839844 442.445312 C 452.496094 444.601562 454.476562 446.675781 456.457031 448.75 Z M 445.847656 449.125 C 442.640625 449.097656 439.4375 449.070312 436.230469 449.039062 C 434.234375 447.179688 432.121094 445.417969 430.027344 443.441406 C 433.34375 443.371094 436.550781 443.398438 439.769531 443.214844 C 441.964844 445.304688 443.960938 447.164062 445.847656 449.125 Z M 436.085938 449.5625 C 437.984375 451.3125 440.097656 453.074219 442.109375 454.722656 C 439.132812 454.5 436.273438 454.175781 433.3125 453.738281 C 431.183594 452.1875 429.054688 450.636719 427.042969 448.988281 C 430.117188 449.328125 433.09375 449.550781 436.085938 449.5625 Z M 453.230469 456.097656 C 455.230469 457.957031 457.242188 459.609375 459.355469 461.371094 C 456.378906 461.144531 453.402344 460.921875 450.539062 460.597656 C 448.414062 459.046875 446.1875 457.382812 444.171875 455.734375 C 447.164062 455.746094 450.253906 455.871094 453.230469 456.097656 Z M 454.195312 456.0625 C 457.1875 456.074219 460.179688 456.085938 463.289062 456 C 465.171875 457.960938 467.167969 459.824219 469.167969 461.683594 C 466.175781 461.671875 463.296875 461.5625 460.417969 461.449219 C 458.421875 459.589844 456.308594 457.828125 454.195312 456.0625 Z M 469.96875 462.386719 C 471.964844 464.246094 474.078125 466.011719 476.191406 467.773438 C 473.425781 467.566406 470.664062 467.355469 467.898438 467.148438 C 465.769531 465.597656 463.660156 463.832031 461.433594 462.167969 C 464.3125 462.28125 467.089844 462.277344 469.96875 462.386719 Z M 470.933594 462.351562 C 481.511719 462.402344 491.945312 461.585938 502.226562 459.90625 C 526.699219 455.765625 548.953125 446.972656 566.808594 434.207031 C 594.148438 414.679688 611.296875 388.609375 625.921875 363.308594 C 630.230469 355.828125 634.453125 348.023438 638.558594 340.316406 C 640.925781 335.898438 643.289062 331.480469 645.75 327.175781 L 648.234375 325.4375 C 645.902344 330.820312 643.671875 336.320312 641.457031 341.601562 C 638.589844 348.441406 635.589844 355.59375 632.609375 362.53125 C 620.648438 389.3125 606.058594 416.96875 580.007812 437.773438 C 553.503906 458.96875 515.601562 469.679688 477.367188 467.753906 C 475.140625 466.089844 473.144531 464.230469 470.933594 462.351562 Z M 580.289062 438.328125 C 606.449219 417.425781 621.15625 389.671875 633.019531 362.773438 C 636.097656 355.953125 639 348.6875 641.867188 341.847656 C 644.210938 336.253906 646.574219 330.445312 649.035156 324.75 L 651.632812 322.914062 C 649.53125 329.492188 647.433594 336.066406 645.449219 342.546875 C 643.460938 349.023438 641.476562 355.503906 639.378906 362.078125 C 630.085938 390.347656 617.933594 419.683594 593.160156 441.972656 L 591.675781 443.25 C 564.925781 466.246094 524.214844 477.386719 484.195312 473.617188 C 482.066406 472.066406 479.957031 470.304688 477.84375 468.539062 C 516.089844 470.253906 553.894531 459.425781 580.289062 438.328125 Z M 531.675781 471.964844 C 556.097656 467.074219 577.601562 456.9375 593.765625 442.445312 C 618.75 420.171875 630.804688 390.722656 640.214844 362.355469 C 642.296875 355.992188 644.296875 349.300781 646.28125 342.824219 C 648.398438 336.035156 650.511719 329.246094 652.628906 322.457031 L 655.339844 320.523438 C 653.699219 328.097656 652.058594 335.667969 650.535156 343.144531 C 649.332031 349.148438 648.003906 355.460938 646.6875 361.5625 C 640.175781 391.214844 630.804688 421.9375 606.871094 445.894531 C 579.816406 472.929688 535.164062 485.269531 491.921875 478.902344 C 489.792969 477.351562 487.550781 475.902344 485.535156 474.253906 C 500.925781 475.734375 516.492188 474.878906 531.675781 471.964844 Z M 653.035156 321.3125 L 653.847656 319.019531 L 656.234375 317.167969 L 655.730469 319.589844 Z M 654.140625 317.972656 L 654.839844 315.78125 L 657.011719 313.914062 L 656.410156 316.222656 Z M 657.828125 313.015625 L 660 311.148438 L 659.597656 313.683594 L 657.210938 315.53125 Z M 658.121094 311.96875 L 658.722656 309.660156 L 660.683594 307.777344 L 660.292969 310.101562 Z M 661.578125 305.8125 L 661.96875 303.492188 L 663.714844 301.59375 L 663.539062 303.929688 Z M 664.53125 300.691406 L 666.390625 298.695312 L 666.296875 301.359375 L 664.339844 303.242188 Z M 666.980469 297.992188 L 668.839844 295.992188 C 668.875 296.957031 668.8125 297.808594 668.960938 298.675781 L 666.886719 300.65625 Z M 669.328125 295.175781 L 672.023438 292.0625 C 690.777344 271.566406 710.097656 254.957031 729.40625 242.734375 C 737.261719 237.769531 745.496094 233.472656 754.109375 229.847656 C 771.871094 222.527344 789.363281 218.824219 802.570312 216.617188 C 804.957031 216.15625 807.441406 215.808594 809.714844 215.445312 L 809.8125 215.558594 C 807.640625 216.035156 805.464844 216.515625 803.273438 217.203125 C 786.621094 221.183594 770.472656 226.914062 754.964844 234.082031 C 746.535156 238.148438 738.285156 242.65625 730.527344 247.734375 C 711.757812 259.894531 691.832031 276.027344 671.523438 295.875 L 669.335938 297.953125 Z M 797.996094 209.214844 C 780.460938 203.613281 764.65625 199.105469 747.621094 201.027344 C 738.238281 202.136719 729.152344 204.976562 721 209.601562 C 700.382812 220.765625 681.984375 242.144531 672.03125 266.40625 C 671.265625 268.0625 670.714844 269.730469 670.046875 271.496094 L 670.207031 270.761719 C 670.957031 267.929688 671.800781 265.214844 672.761719 262.402344 C 681.257812 237.601562 699.390625 215.449219 720.09375 204.613281 C 728.34375 200.105469 737.414062 197.476562 746.75 197.007812 C 765.109375 195.933594 782.863281 202.941406 797.179688 208.726562 L 799.355469 209.636719 C 798.734375 209.378906 798.308594 209.34375 797.996094 209.214844 Z M 669.039062 276.335938 L 668.976562 277.1875 L 668.601562 277.90625 L 668.777344 276.960938 Z M 667.382812 282.734375 L 667.316406 283.585938 L 666.941406 284.304688 L 667.121094 283.355469 Z M 665.296875 289.097656 L 665.121094 290.046875 L 664.628906 290.863281 L 664.808594 289.914062 Z M 663.003906 295.445312 L 662.824219 296.394531 C 662.695312 296.703125 662.464844 296.902344 662.335938 297.210938 C 662.464844 296.902344 662.480469 296.6875 662.609375 296.378906 Z M 660.28125 301.761719 L 660.003906 302.59375 L 659.402344 303.511719 L 659.675781 302.675781 Z M 657.152344 307.832031 L 656.761719 308.765625 L 656.058594 309.566406 L 656.449219 308.632812 Z M 653.382812 313.855469 L 652.992188 314.785156 L 652.175781 315.6875 L 652.664062 314.867188 Z M 648.992188 319.617188 L 648.503906 320.433594 L 647.476562 321.320312 L 647.964844 320.5 Z M 644.179688 325.347656 L 643.6875 326.164062 L 642.773438 326.949219 L 643.363281 326.246094 Z M 638.53125 330.800781 L 638.054688 331.40625 L 637.042969 332.078125 L 637.613281 331.585938 Z M 632.257812 335.992188 C 622.757812 345.75 613.484375 355.3125 603.816406 364.417969 C 583.554688 383.625 558.503906 405.359375 525.976562 421.394531 C 502.460938 432.664062 476.933594 439.5 450.886719 441.808594 C 449.117188 439.75 447.347656 437.691406 445.480469 435.519531 C 468.550781 432.988281 491.121094 427.101562 512.546875 418.03125 C 539.949219 406.203125 565.855469 390.09375 596.886719 365.605469 C 608.480469 356.429688 619.683594 346.800781 631.015625 336.859375 Z M 450.136719 441.859375 C 446.800781 442.140625 443.578125 442.324219 440.359375 442.511719 C 438.476562 440.550781 436.589844 438.589844 434.824219 436.535156 C 438.15625 436.25 441.492188 435.96875 444.941406 435.585938 C 446.597656 437.742188 448.367188 439.800781 450.136719 441.859375 Z M 439.394531 442.542969 C 436.171875 442.730469 432.851562 442.800781 429.4375 442.753906 C 427.4375 440.894531 425.554688 438.933594 423.671875 436.972656 C 426.992188 436.902344 430.425781 436.734375 433.757812 436.453125 C 435.742188 438.527344 437.511719 440.585938 439.394531 442.542969 Z M 423.179688 436.402344 C 421.296875 434.441406 419.414062 432.484375 417.742188 430.539062 C 421.175781 430.371094 424.722656 430.105469 428.171875 429.722656 C 429.941406 431.78125 431.710938 433.839844 433.480469 435.898438 C 429.933594 436.164062 426.5 436.332031 423.179688 436.402344 Z M 422.214844 436.4375 C 418.894531 436.507812 415.578125 436.578125 412.273438 436.433594 C 410.277344 434.574219 408.492188 432.726562 406.492188 430.867188 C 409.8125 430.796875 413.34375 430.742188 416.566406 430.558594 C 418.449219 432.515625 420.332031 434.476562 422.214844 436.4375 Z M 406 430.292969 C 404.117188 428.335938 402.234375 426.375 400.351562 424.414062 C 403.882812 424.363281 407.429688 424.09375 410.863281 423.925781 C 412.632812 425.984375 414.304688 427.929688 416.171875 430.101562 C 412.753906 430.054688 409.320312 430.222656 406 430.292969 Z M 405.035156 430.328125 C 401.71875 430.398438 398.300781 430.355469 394.996094 430.210938 C 393 428.351562 391.101562 426.601562 389.214844 424.644531 C 392.632812 424.6875 396.066406 424.519531 399.484375 424.5625 C 401.269531 426.410156 403.152344 428.367188 405.035156 430.328125 Z M 388.429688 423.730469 C 379.488281 414.714844 371.347656 405.011719 363.890625 394.722656 C 348.488281 373.566406 335.714844 350.152344 323.316406 327.410156 C 316.183594 314.253906 308.855469 300.875 301.066406 287.882812 C 291.085938 271.414062 278.613281 252.511719 261.648438 237.871094 C 254.332031 231.4375 246.066406 226.214844 237.179688 222.125 C 235.527344 221.359375 233.761719 220.691406 232.207031 220.039062 C 233.972656 219.316406 235.71875 218.804688 237.582031 218.199219 C 241.246094 219.222656 245.011719 220.363281 248.527344 221.910156 C 257.738281 225.921875 266.332031 231.0625 274.078125 237.523438 C 291.773438 252.332031 304.640625 271.691406 315 288.828125 C 323.363281 302.71875 331.25 317.210938 338.859375 331.148438 C 351.335938 354.21875 364.308594 377.863281 379.777344 399.554688 C 385.773438 407.921875 392.226562 415.890625 399.140625 423.46875 C 395.378906 423.71875 391.960938 423.675781 388.429688 423.730469 Z M 236.804688 222.84375 C 245.59375 226.820312 253.742188 232.140625 261.0625 238.574219 C 277.925781 253.101562 290.300781 271.890625 300.285156 288.359375 C 308.070312 301.347656 315.5 314.84375 322.535156 327.882812 C 334.929688 350.628906 347.703125 374.042969 363.207031 395.3125 C 370.5625 405.488281 378.71875 414.976562 387.351562 423.859375 C 383.933594 423.816406 380.730469 423.789062 377.328125 423.53125 C 366.324219 413.507812 356.265625 402.269531 347.433594 390.378906 C 332 369.648438 319.421875 346.464844 307.207031 324.160156 C 300.53125 312.003906 293.679688 299.40625 286.351562 287.414062 C 276.761719 271.402344 264.664062 253.171875 248.636719 238.917969 C 241.628906 232.617188 233.789062 227.425781 225.441406 223.269531 C 227.222656 222.332031 229.101562 221.511719 231.078125 220.808594 C 232.976562 221.164062 234.957031 221.847656 236.804688 222.84375 Z M 224.738281 222.679688 C 222.988281 221.800781 221.335938 221.035156 219.664062 220.480469 C 221.429688 219.757812 223.292969 219.152344 225.15625 218.542969 C 226.824219 219.097656 228.609375 219.550781 230.164062 220.203125 C 228.398438 220.925781 226.519531 221.746094 224.738281 222.679688 Z M 224.066406 223.058594 C 222.171875 224.089844 220.277344 225.125 218.269531 226.253906 C 216.941406 225.40625 215.503906 224.65625 214.0625 223.90625 C 213.75 223.773438 213.34375 223.53125 213.03125 223.398438 C 214.8125 222.464844 216.902344 221.660156 218.78125 220.839844 C 220.550781 221.507812 222.316406 222.175781 224.066406 223.058594 Z M 212.3125 223.023438 C 210.558594 222.144531 208.90625 221.378906 207.140625 220.710938 C 208.90625 219.988281 210.769531 219.378906 212.632812 218.773438 C 214.414062 219.226562 216.082031 219.78125 217.851562 220.449219 C 216.085938 221.171875 214.207031 221.992188 212.3125 223.023438 Z M 211.542969 223.289062 C 209.648438 224.320312 207.539062 225.335938 205.742188 226.484375 C 204.726562 225.765625 203.699219 225.261719 202.566406 224.640625 C 201.847656 224.265625 201.128906 223.890625 200.308594 223.402344 C 202.304688 222.484375 204.183594 221.664062 206.175781 220.742188 C 208.140625 221.640625 209.792969 222.40625 211.542969 223.289062 Z M 199.800781 223.042969 C 198.050781 222.160156 196.300781 221.28125 194.648438 220.515625 C 196.511719 219.90625 198.488281 219.203125 200.351562 218.59375 C 202.019531 219.148438 203.785156 219.816406 205.554688 220.484375 C 203.460938 221.289062 201.582031 222.109375 199.800781 223.042969 Z M 198.917969 223.402344 C 196.8125 224.417969 194.800781 225.550781 192.90625 226.582031 C 192.300781 226.109375 191.792969 225.75 191.074219 225.375 C 189.847656 224.640625 188.71875 224.023438 187.488281 223.289062 C 189.484375 222.371094 191.476562 221.449219 193.453125 220.746094 C 195.417969 221.640625 197.28125 222.425781 198.917969 223.402344 Z M 186.984375 222.929688 C 185.132812 221.933594 183.382812 221.054688 181.632812 220.171875 C 183.496094 219.566406 185.472656 218.859375 187.433594 218.367188 C 189.199219 219.035156 190.96875 219.703125 192.734375 220.371094 C 190.855469 221.191406 188.863281 222.109375 186.984375 222.929688 Z M 186.199219 223.402344 C 184.089844 224.421875 181.984375 225.4375 179.972656 226.570312 C 179.875 226.453125 179.664062 226.4375 179.5625 226.324219 C 177.945312 225.132812 176.207031 224.039062 174.457031 223.160156 C 176.453125 222.242188 178.542969 221.4375 180.632812 220.632812 C 182.613281 221.316406 184.464844 222.3125 186.199219 223.402344 Z M 173.964844 222.585938 C 172.230469 221.492188 170.382812 220.5 168.632812 219.617188 C 170.609375 218.914062 172.570312 218.417969 174.644531 217.828125 C 176.414062 218.496094 178.277344 219.277344 180.144531 220.058594 C 177.9375 220.964844 175.960938 221.667969 173.964844 222.585938 Z M 173.296875 222.964844 C 171.1875 223.980469 169.082031 224.996094 166.859375 226.113281 C 165.140625 224.808594 163.207031 223.484375 161.261719 222.375 C 163.351562 221.570312 165.445312 220.769531 167.632812 220.078125 C 169.5 220.859375 171.347656 221.855469 173.296875 222.964844 Z M 160.65625 221.902344 C 158.921875 220.808594 156.972656 219.699219 155.125 218.707031 C 157.199219 218.113281 159.273438 217.523438 161.335938 217.144531 C 163.199219 217.925781 164.96875 218.59375 166.816406 219.589844 C 164.742188 220.179688 162.648438 220.984375 160.65625 221.902344 Z M 166.695312 226.847656 L 167.808594 227.679688 C 169.332031 228.757812 170.738281 229.933594 172.246094 231.222656 C 169.894531 232.648438 167.527344 234.289062 165.269531 235.828125 C 163.484375 233.984375 161.683594 232.351562 159.882812 230.71875 C 162.136719 229.175781 164.472656 227.964844 166.695312 226.847656 Z M 172.753906 231.582031 C 174.554688 233.214844 176.355469 234.847656 178.15625 236.480469 C 175.675781 238.21875 173.40625 239.96875 171.019531 241.820312 C 169.347656 239.878906 167.5625 238.03125 165.679688 236.074219 C 168.03125 234.648438 170.402344 233.007812 172.753906 231.582031 Z M 178.664062 236.839844 C 180.5625 238.585938 182.25 240.316406 183.921875 242.261719 C 181.519531 244.324219 179.121094 246.386719 176.71875 248.453125 C 175.246094 246.738281 173.984375 245.039062 172.511719 243.324219 C 172.214844 242.980469 171.921875 242.636719 171.527344 242.179688 C 173.894531 240.542969 176.28125 238.691406 178.664062 236.839844 Z M 184.414062 242.832031 C 184.511719 242.945312 184.609375 243.0625 184.609375 243.0625 C 186.394531 244.90625 187.96875 246.734375 189.523438 248.777344 C 187.109375 251.054688 184.578125 253.429688 182.046875 255.804688 C 180.40625 253.433594 178.753906 251.277344 176.886719 249.105469 C 179.613281 246.960938 182.011719 244.894531 184.414062 242.832031 Z M 185.179688 242.570312 C 185.082031 242.457031 184.984375 242.339844 184.984375 242.339844 C 187.269531 240.375 189.542969 238.625 191.8125 236.871094 C 193.613281 238.503906 195.300781 240.234375 197.085938 242.078125 C 194.683594 244.144531 192.382812 246.320312 190.195312 248.402344 C 188.523438 246.457031 186.851562 244.511719 185.179688 242.570312 Z M 197.59375 242.4375 C 210.285156 255.585938 220.21875 271.300781 228.285156 284.84375 C 233.316406 293.242188 238.21875 301.953125 242.828125 310.316406 C 254.597656 331.410156 266.847656 353.289062 282.082031 372.398438 C 296.433594 390.480469 313.660156 405.894531 333.269531 418.066406 C 330.421875 417.53125 327.691406 416.894531 324.859375 416.148438 C 302.375 403.867188 282.5625 387.296875 266.425781 367.367188 C 251.160156 348.683594 239.207031 327.148438 227.417969 306.265625 C 223.171875 298.785156 218.941406 291.089844 214.480469 283.589844 C 207.496094 271.300781 199.402344 259.574219 190.617188 248.433594 C 192.890625 246.679688 195.289062 244.617188 197.59375 242.4375 Z M 282.640625 372.121094 C 267.402344 353.011719 255.253906 331.246094 243.480469 310.152344 C 238.773438 301.671875 233.871094 292.964844 228.839844 284.566406 C 220.773438 271.023438 210.742188 255.191406 198.050781 242.046875 C 200.222656 240.179688 202.394531 238.3125 204.777344 236.460938 C 206.578125 238.09375 208.378906 239.726562 210.066406 241.457031 C 223.691406 254.992188 234.117188 271.28125 242.558594 285.496094 C 248.164062 294.792969 253.527344 304.496094 258.691406 313.976562 C 270.546875 335.394531 282.992188 357.503906 298.195312 377.039062 C 311.15625 393.730469 326.53125 408.148438 343.800781 420.144531 C 340.839844 419.707031 337.996094 419.171875 335.148438 418.636719 C 315.230469 406.332031 297.382812 390.660156 282.640625 372.121094 Z M 340.679688 420.441406 C 342.363281 420.785156 344.0625 420.910156 345.75 421.253906 C 347.777344 422.6875 349.824219 423.914062 351.96875 425.25 C 349.335938 424.730469 346.605469 424.097656 343.96875 423.578125 C 341.808594 422.453125 339.667969 421.113281 337.621094 419.890625 C 338.570312 420.070312 339.617188 420.363281 340.679688 420.441406 Z M 347.222656 421.578125 C 350.179688 422.015625 353.140625 422.453125 356.003906 422.777344 C 358.035156 424.210938 360.160156 425.761719 362.191406 427.199219 C 359.867188 426.808594 357.644531 426.535156 355.4375 426.046875 C 354.914062 425.902344 354.273438 425.851562 353.75 425.707031 C 351.507812 424.253906 349.367188 422.914062 347.222656 421.578125 Z M 355.289062 426.570312 C 358.039062 426.992188 360.671875 427.511719 363.417969 427.933594 C 365.449219 429.367188 367.496094 430.59375 369.523438 432.027344 C 366.890625 431.507812 364.160156 430.875 361.527344 430.355469 C 359.480469 429.132812 357.433594 427.910156 355.289062 426.570312 Z M 365.003906 428.160156 C 367.964844 428.597656 370.828125 428.921875 373.789062 429.359375 C 375.914062 430.90625 377.832031 432.441406 379.976562 433.78125 C 377.128906 433.246094 374.265625 432.921875 371.421875 432.386719 C 369.277344 431.046875 367.035156 429.597656 365.003906 428.160156 Z M 381.089844 434.613281 C 383.117188 436.050781 385.164062 437.273438 387.195312 438.707031 L 385.296875 438.351562 C 383.300781 437.878906 381.191406 437.507812 379.195312 437.035156 C 377.035156 435.910156 374.890625 434.574219 372.84375 433.347656 C 375.59375 433.769531 378.339844 434.191406 381.089844 434.613281 Z M 382.675781 434.839844 C 385.636719 435.277344 388.496094 435.601562 391.359375 435.921875 C 393.375 437.570312 395.402344 439.007812 397.53125 440.558594 C 394.785156 440.136719 391.824219 439.699219 388.976562 439.164062 C 386.949219 437.726562 384.589844 436.375 382.675781 434.839844 Z M 398.757812 441.292969 C 400.789062 442.730469 402.816406 444.164062 404.960938 445.503906 C 403.488281 445.179688 402.019531 444.851562 400.546875 444.527344 L 397.078125 443.730469 C 394.917969 442.605469 392.773438 441.269531 390.628906 439.929688 C 393.261719 440.449219 395.898438 440.96875 398.757812 441.292969 Z M 400.132812 441.503906 C 402.878906 441.925781 405.644531 442.132812 408.503906 442.457031 C 410.519531 444.105469 412.550781 445.542969 414.675781 447.09375 C 411.929688 446.671875 409.183594 446.25 406.648438 445.84375 C 404.40625 444.390625 402.164062 442.9375 400.132812 441.503906 Z M 417.277344 448.035156 C 420.140625 448.359375 423.003906 448.683594 425.980469 448.90625 C 427.992188 450.554688 430.023438 451.992188 432.152344 453.542969 C 429.289062 453.21875 426.539062 452.796875 423.695312 452.261719 C 421.4375 451.023438 419.195312 449.570312 417.277344 448.035156 Z M 434.523438 454.683594 C 437.386719 455.007812 440.246094 455.332031 443.125 455.441406 C 445.140625 457.089844 447.152344 458.738281 449.28125 460.289062 C 446.417969 459.964844 443.671875 459.542969 440.921875 459.125 C 438.679688 457.671875 436.4375 456.21875 434.523438 454.683594 Z M 450.394531 461.121094 C 452.425781 462.558594 454.550781 464.109375 456.582031 465.542969 C 453.949219 465.023438 451.316406 464.503906 448.679688 463.984375 C 446.539062 462.648438 444.394531 461.308594 442.25 459.972656 C 444.882812 460.492188 447.53125 460.796875 450.394531 461.121094 Z M 451.667969 461.21875 C 454.53125 461.539062 457.507812 461.765625 460.273438 461.972656 C 462.382812 463.738281 464.398438 465.386719 466.527344 466.9375 C 463.664062 466.613281 460.800781 466.289062 457.957031 465.753906 C 455.925781 464.320312 453.796875 462.769531 451.667969 461.21875 Z M 467.640625 467.769531 C 469.765625 469.320312 471.796875 470.753906 473.925781 472.304688 C 471.175781 471.886719 468.542969 471.363281 465.910156 470.84375 C 463.765625 469.507812 461.621094 468.167969 459.476562 466.832031 C 462.128906 467.140625 464.875 467.558594 467.640625 467.769531 Z M 468.914062 467.867188 C 471.679688 468.074219 474.328125 468.382812 476.992188 468.476562 C 479.105469 470.238281 481.117188 471.886719 483.246094 473.4375 C 480.597656 473.128906 477.949219 472.824219 475.414062 472.417969 C 473.171875 470.964844 471.042969 469.414062 468.914062 467.867188 Z M 484.261719 474.15625 C 486.390625 475.707031 488.519531 477.257812 490.546875 478.691406 C 488.011719 478.289062 485.589844 477.785156 483.171875 477.28125 C 481.027344 475.941406 478.882812 474.605469 476.640625 473.152344 C 479.0625 473.65625 481.710938 473.964844 484.261719 474.15625 Z M 491.757812 479.640625 C 493.789062 481.074219 495.835938 482.300781 497.765625 483.621094 C 495.558594 483.132812 493.25 482.53125 490.945312 481.929688 C 488.785156 480.804688 486.738281 479.582031 484.691406 478.359375 C 487 478.960938 489.320312 479.347656 491.757812 479.640625 Z M 493.132812 479.851562 C 536.082031 485.875 580.324219 473.289062 607.363281 446.464844 C 631.410156 422.410156 640.796875 391.476562 647.539062 361.625 C 648.851562 355.523438 650.183594 349.210938 651.382812 343.207031 C 652.925781 335.519531 654.582031 327.734375 656.238281 319.949219 L 658.949219 318.015625 C 657.785156 326.375 656.816406 334.960938 655.980469 343.234375 C 655.316406 349.171875 654.753906 355.222656 653.882812 361.144531 C 650.148438 390.792969 643.21875 424.585938 620.234375 450.109375 C 593.398438 479.941406 544.710938 493.367188 499.449219 483.960938 C 497.40625 482.738281 495.164062 481.285156 493.132812 479.851562 Z M 656.53125 318.902344 C 656.808594 318.066406 656.871094 317.21875 657.148438 316.382812 L 659.648438 314.433594 L 659.242188 316.96875 Z M 660.429688 313.957031 L 662.929688 312.007812 L 662.722656 314.773438 L 660.011719 316.707031 Z M 660.609375 313.011719 L 661.015625 310.476562 L 663.300781 308.511719 L 663.109375 311.0625 Z M 663.886719 307.804688 L 666.175781 305.839844 C 666.207031 306.804688 666.144531 307.65625 666.179688 308.621094 L 665.605469 309.113281 L 663.679688 310.570312 Z M 664.066406 306.855469 L 664.371094 304.207031 L 666.445312 302.226562 C 666.480469 303.191406 666.417969 304.042969 666.351562 304.890625 Z M 666.917969 301.621094 L 669.109375 299.539062 C 669.140625 300.503906 669.175781 301.46875 669.324219 302.335938 L 667.039062 304.300781 Z M 669.695312 298.835938 C 670.609375 298.050781 671.425781 297.148438 672.242188 296.25 C 692.550781 276.402344 712.476562 260.269531 731.132812 248.207031 C 738.890625 243.128906 747.140625 238.621094 755.457031 234.652344 C 770.964844 227.484375 787.109375 221.753906 803.765625 217.777344 C 806.167969 217.101562 808.554688 216.640625 810.84375 216.066406 L 810.941406 216.179688 C 808.753906 216.871094 806.5625 217.558594 804.257812 218.347656 C 787.703125 223.832031 771.6875 230.640625 756.214844 238.773438 C 748.421875 242.886719 740.253906 247.722656 732.039062 253.195312 C 713.695312 265.386719 694.390625 280.390625 671.625 300.160156 L 669.683594 301.828125 C 669.648438 300.863281 669.613281 299.898438 669.695312 298.835938 Z M 811.710938 215.917969 Z M 797.128906 207.972656 C 782.8125 202.1875 764.960938 195.066406 746.488281 196.238281 C 737.035156 196.808594 727.851562 199.535156 719.601562 204.042969 C 698.785156 214.976562 680.636719 237.339844 672.027344 262.238281 C 671.601562 263.597656 671.179688 264.953125 670.644531 266.410156 C 671.277344 263.679688 671.910156 260.945312 672.640625 258.328125 C 680.027344 232.695312 697.550781 210.074219 718.351562 199.351562 C 726.699219 194.957031 735.851562 192.65625 745.289062 192.296875 C 763.796875 192.09375 780.816406 200.328125 795.984375 207.566406 Z M 596.507812 364.933594 C 565.691406 389.4375 539.667969 405.648438 512.378906 417.375 C 490.957031 426.449219 468.171875 432.316406 445.105469 434.851562 C 443.449219 432.695312 441.679688 430.636719 440.027344 428.480469 C 460.214844 425.835938 480.042969 420.921875 499.277344 413.929688 C 528.414062 403.195312 557.136719 388.042969 589.792969 366.136719 C 602.402344 357.683594 614.71875 348.882812 626.851562 339.644531 C 616.792969 348.292969 606.847656 356.84375 596.507812 364.933594 Z M 444.351562 434.902344 C 440.902344 435.28125 437.566406 435.566406 434.234375 435.847656 C 432.464844 433.789062 430.695312 431.730469 428.925781 429.671875 C 432.375 429.292969 435.824219 428.910156 439.386719 428.433594 C 440.929688 430.6875 442.582031 432.84375 444.351562 434.902344 Z M 428.320312 429.199219 C 426.550781 427.140625 424.894531 424.988281 423.242188 422.832031 C 426.902344 422.464844 430.46875 421.984375 434.03125 421.507812 C 435.6875 423.664062 437.226562 425.917969 438.882812 428.074219 C 435.332031 428.339844 431.882812 428.722656 428.320312 429.199219 Z M 427.566406 429.25 C 424.019531 429.515625 420.472656 429.785156 417.039062 429.953125 C 415.269531 427.894531 413.386719 425.933594 411.730469 423.777344 C 415.277344 423.511719 418.828125 423.246094 422.488281 422.878906 C 424.144531 425.035156 425.796875 427.191406 427.566406 429.25 Z M 259.808594 221.160156 C 269.460938 224.988281 278.578125 230.273438 286.535156 236.753906 C 304.96875 251.726562 318.425781 271.769531 329.0625 289.464844 C 338 304.25 346.34375 319.742188 354.414062 334.675781 C 367.089844 357.976562 380.125 382.15625 395.578125 404.0625 C 399.824219 410.15625 404.6875 416.511719 410.078125 423.011719 C 406.53125 423.277344 403 423.332031 399.566406 423.5 C 392.554688 415.808594 386 407.722656 379.90625 399.246094 C 364.535156 377.664062 351.464844 353.910156 339.085938 330.953125 C 331.476562 317.015625 323.589844 302.519531 315.230469 288.632812 C 304.871094 271.496094 291.90625 252.019531 274.207031 237.214844 C 266.460938 230.75 257.886719 225.398438 248.558594 221.488281 C 245.238281 220.167969 242.015625 218.960938 238.5625 217.953125 C 240.199219 217.542969 241.832031 217.128906 243.46875 216.71875 C 249.0625 217.675781 254.507812 219.15625 259.808594 221.160156 Z M 236.210938 217.988281 C 234.460938 218.496094 232.808594 219.121094 231.160156 219.746094 C 229.492188 219.191406 227.9375 218.539062 226.25 218.199219 C 228 217.6875 229.632812 217.277344 231.367188 216.980469 C 232.953125 217.207031 234.640625 217.546875 236.210938 217.988281 Z M 223.898438 218.234375 C 222.148438 218.742188 220.496094 219.367188 218.734375 220.089844 C 217.0625 219.535156 215.507812 218.882812 213.839844 218.328125 C 215.476562 217.917969 217.222656 217.410156 218.957031 217.113281 C 220.640625 217.453125 222.328125 217.792969 223.898438 218.234375 Z M 211.601562 218.265625 C 209.851562 218.777344 208.085938 219.5 206.4375 220.121094 C 204.785156 219.355469 203.113281 218.800781 201.445312 218.25 C 203.195312 217.738281 205.042969 217.34375 206.773438 217.046875 C 208.246094 217.371094 209.816406 217.8125 211.601562 218.265625 Z M 199.09375 218.285156 C 197.230469 218.890625 195.480469 219.402344 193.714844 220.125 C 192.0625 219.355469 190.296875 218.6875 188.625 218.136719 C 190.375 217.625 192.222656 217.230469 194.054688 217.050781 C 195.640625 217.277344 197.421875 217.730469 199.09375 218.285156 Z M 186.386719 218.074219 C 184.425781 218.566406 182.5625 219.175781 180.796875 219.894531 C 179.046875 219.015625 177.277344 218.347656 175.609375 217.792969 C 177.457031 217.398438 179.304688 217.003906 181.25 216.722656 C 183.050781 216.964844 184.71875 217.519531 186.386719 218.074219 Z M 173.386719 217.519531 C 171.425781 218.011719 169.5625 218.621094 167.699219 219.226562 C 165.949219 218.347656 164.292969 217.582031 162.429688 216.796875 C 164.277344 216.402344 166.222656 216.121094 168.167969 215.84375 C 169.949219 216.296875 171.71875 216.964844 173.386719 217.519531 Z M 155.199219 214.863281 C 156.867188 215.417969 158.535156 215.96875 160.304688 216.636719 C 158.34375 217.132812 156.382812 217.625 154.417969 218.117188 C 152.667969 217.238281 150.917969 216.355469 149.050781 215.574219 C 150.996094 215.292969 152.941406 215.011719 154.988281 214.847656 Z M 147.90625 215.167969 C 147.1875 214.792969 146.351562 214.515625 145.519531 214.238281 C 144.683594 213.960938 143.75 213.570312 142.917969 213.292969 C 144.632812 213.210938 146.449219 213.238281 148.265625 213.269531 C 149.949219 213.609375 151.519531 214.050781 153.300781 214.503906 C 151.371094 214.574219 149.640625 214.871094 147.90625 215.167969 Z M 145.371094 214.761719 L 146.828125 215.300781 C 144.769531 215.679688 142.707031 216.058594 140.746094 216.550781 C 139.109375 215.570312 137.457031 214.804688 135.820312 213.828125 L 135.199219 213.566406 C 137.144531 213.285156 139.1875 213.117188 141.117188 213.050781 C 142.460938 213.6875 143.914062 214.222656 145.371094 214.761719 Z M 133.890625 213.894531 L 135.332031 214.644531 C 136.773438 215.394531 138.210938 216.144531 139.652344 216.894531 C 137.363281 217.472656 135.175781 218.160156 132.886719 218.734375 C 131.070312 217.316406 129.234375 216.109375 127.1875 214.886719 C 129.574219 214.421875 131.734375 214.160156 133.890625 213.894531 Z M 140.46875 217.382812 C 142.417969 218.492188 144.25 219.703125 146.183594 221.023438 C 143.878906 221.8125 141.558594 222.8125 139.253906 223.601562 C 137.339844 222.066406 135.519531 220.644531 133.589844 219.324219 C 135.894531 218.535156 138.183594 217.960938 140.46875 217.382812 Z M 153.089844 225.820312 C 154.203125 226.652344 155.316406 227.484375 156.21875 228.300781 C 157.019531 229.003906 157.820312 229.707031 158.625 230.410156 C 156.273438 231.835938 153.707031 233.242188 151.355469 234.667969 C 149.570312 232.824219 147.785156 230.980469 145.886719 229.230469 C 148.320312 228.132812 150.753906 227.035156 153.089844 225.820312 Z M 159.230469 230.882812 C 161.03125 232.515625 162.929688 234.261719 164.714844 236.105469 C 162.234375 237.84375 159.75 239.582031 157.269531 241.316406 C 155.5 239.257812 153.730469 237.199219 151.945312 235.355469 C 154.3125 233.71875 156.761719 232.40625 159.230469 230.882812 Z M 163.671875 248.535156 L 171.054688 242.785156 C 171.347656 243.128906 171.742188 243.585938 172.035156 243.929688 C 173.511719 245.644531 174.886719 247.246094 176.246094 249.058594 L 171.789062 252.890625 L 168.472656 255.738281 C 166.835938 253.371094 165.082031 251.101562 163.328125 248.832031 Z M 172.296875 253.25 L 176.753906 249.417969 C 178.507812 251.6875 180.261719 253.957031 181.914062 256.113281 L 180.414062 257.605469 C 178.339844 259.585938 176.265625 261.566406 174.078125 263.648438 C 172.339844 261.164062 170.816406 258.695312 168.980469 256.097656 Z M 180.691406 258.160156 L 182.082031 256.769531 C 188.667969 265.816406 194.371094 275.226562 199.40625 283.625 C 203.191406 290.113281 206.964844 296.8125 210.75 303.296875 C 222.457031 323.851562 234.425781 345.175781 249.613281 363.535156 C 266.566406 383.949219 287.636719 400.828125 311.429688 412.78125 C 309.335938 412.195312 307.144531 411.496094 304.953125 410.796875 C 277.613281 399.109375 253.1875 381.335938 233.839844 358.601562 C 218.523438 340.554688 206.636719 319.558594 195.03125 299.117188 C 191.914062 293.644531 188.703125 288.054688 185.585938 282.582031 C 182.175781 276.765625 178.375 270.492188 174.257812 264.085938 Z M 250.28125 363.15625 C 235.097656 344.796875 223.011719 323.574219 211.421875 302.921875 C 207.84375 296.449219 203.960938 289.851562 200.074219 283.25 C 195.15625 274.753906 189.335938 265.441406 182.652344 256.277344 C 185.183594 253.902344 187.597656 251.625 190.128906 249.25 C 199.027344 260.292969 206.910156 272.007812 213.894531 284.292969 C 218.351562 291.792969 222.582031 299.488281 226.828125 306.972656 C 238.519531 327.738281 250.6875 349.289062 265.839844 368.074219 C 281.484375 387.429688 300.691406 403.523438 322.324219 415.742188 C 319.804688 415.125 317.289062 414.507812 314.882812 413.789062 C 290.027344 401.757812 267.925781 384.371094 250.28125 363.15625 Z M 325.207031 417.242188 C 326.742188 418.105469 328.496094 418.988281 330.03125 419.851562 C 328.152344 419.28125 326.269531 418.710938 324.292969 418.027344 C 322.3125 417.34375 320.773438 416.480469 319.121094 415.714844 C 321.214844 416.300781 323.210938 416.769531 325.207031 417.242188 Z M 327.625 417.746094 C 330.144531 418.363281 332.777344 418.882812 335.414062 419.402344 C 337.359375 420.511719 339.308594 421.621094 341.253906 422.730469 C 338.734375 422.113281 336.117188 421.382812 333.597656 420.761719 C 331.636719 419.867188 329.671875 418.96875 327.625 417.746094 Z M 343.398438 424.070312 C 345.035156 425.046875 346.785156 425.929688 348.539062 426.808594 C 346.445312 426.222656 344.25 425.523438 342.171875 424.726562 C 340.519531 423.957031 338.867188 423.191406 337.101562 422.523438 C 339.195312 423.109375 341.191406 423.582031 343.398438 424.070312 Z M 346.128906 424.703125 C 348.550781 425.207031 350.972656 425.710938 353.492188 426.328125 C 355.4375 427.4375 357.484375 428.660156 359.433594 429.769531 C 357.125 429.167969 354.820312 428.566406 352.414062 427.851562 C 350.238281 426.9375 348.078125 425.8125 346.128906 424.703125 Z M 361.378906 430.878906 C 363.015625 431.859375 364.765625 432.738281 366.519531 433.617188 C 364.636719 433.050781 362.855469 432.59375 361.085938 431.925781 C 359.222656 431.144531 357.257812 430.246094 355.507812 429.367188 C 357.386719 429.9375 359.382812 430.40625 361.378906 430.878906 Z M 363.800781 431.382812 C 366.007812 431.871094 368.214844 432.359375 370.328125 432.730469 L 371.273438 432.910156 C 373.207031 434.230469 375.152344 435.339844 377.101562 436.449219 C 374.679688 435.945312 372.277344 435.230469 369.96875 434.628906 C 367.90625 433.617188 365.746094 432.492188 363.800781 431.382812 Z M 379.050781 437.558594 C 380.6875 438.539062 382.4375 439.417969 384.1875 440.300781 C 382.207031 439.613281 380.210938 439.144531 378.234375 438.460938 C 376.582031 437.691406 374.828125 436.8125 373.0625 436.144531 C 375.058594 436.617188 377.152344 437.203125 379.050781 437.558594 Z M 381.355469 438.160156 C 382.617188 438.46875 383.988281 438.679688 385.25 438.988281 C 386.507812 439.296875 387.570312 439.378906 388.832031 439.6875 C 390.761719 441.007812 392.710938 442.117188 394.65625 443.226562 C 392.351562 442.625 389.832031 442.007812 387.523438 441.40625 C 385.464844 440.394531 383.402344 439.382812 381.355469 438.160156 Z M 396.605469 444.335938 C 398.242188 445.316406 399.992188 446.195312 401.742188 447.078125 C 399.863281 446.507812 397.882812 445.824219 395.789062 445.238281 C 393.921875 444.457031 392.269531 443.6875 390.519531 442.808594 C 392.613281 443.394531 394.707031 443.980469 396.605469 444.335938 Z M 398.910156 444.9375 C 399.335938 444.972656 399.859375 445.117188 400.285156 445.148438 C 402.28125 445.621094 404.292969 445.878906 406.289062 446.351562 C 408.21875 447.671875 410.167969 448.78125 412.210938 450.003906 C 409.792969 449.503906 407.386719 448.785156 404.984375 448.070312 C 402.921875 447.058594 400.859375 446.046875 398.910156 444.9375 Z M 414.160156 451.113281 C 415.796875 452.09375 417.644531 453.089844 419.398438 453.96875 C 417.304688 453.382812 415.421875 452.8125 413.441406 452.128906 C 411.578125 451.347656 409.824219 450.46875 408.171875 449.699219 C 410.167969 450.171875 412.164062 450.644531 414.160156 451.113281 Z M 416.367188 451.601562 C 418.578125 452.089844 420.996094 452.59375 423.320312 452.984375 C 425.25 454.304688 427.199219 455.414062 429.246094 456.636719 C 427.035156 456.148438 424.84375 455.449219 422.636719 454.960938 C 420.476562 453.835938 418.414062 452.824219 416.367188 451.601562 Z M 430.242188 457.566406 C 430.457031 457.585938 430.765625 457.714844 430.980469 457.730469 C 432.617188 458.710938 434.367188 459.589844 436.003906 460.570312 C 434.222656 460.113281 432.453125 459.445312 430.785156 458.890625 C 429.117188 458.339844 427.167969 457.230469 425.417969 456.347656 C 427.085938 456.902344 428.65625 457.339844 430.242188 457.566406 Z M 433.1875 458.21875 C 435.609375 458.722656 438.03125 459.226562 440.566406 459.628906 C 442.496094 460.953125 444.542969 462.175781 446.585938 463.398438 L 445.539062 463.105469 C 443.546875 462.636719 441.453125 462.050781 439.355469 461.464844 C 437.179688 460.550781 435.234375 459.441406 433.1875 458.21875 Z M 445.28125 463.726562 C 446.328125 464.019531 447.277344 464.199219 448.324219 464.492188 C 449.960938 465.472656 451.695312 466.566406 453.445312 467.445312 C 451.351562 466.859375 449.160156 466.160156 447.179688 465.476562 C 445.527344 464.710938 443.777344 463.828125 442.125 463.0625 C 443.171875 463.355469 444.21875 463.648438 445.28125 463.726562 Z M 450.433594 464.867188 C 452.851562 465.371094 455.273438 465.871094 457.808594 466.277344 C 459.742188 467.601562 461.785156 468.824219 463.71875 470.144531 C 462.671875 469.851562 461.511719 469.65625 460.363281 469.25 C 459.21875 468.84375 457.746094 468.519531 456.488281 468.210938 C 454.523438 467.3125 452.476562 466.089844 450.433594 464.867188 Z M 460.316406 469.886719 C 462.097656 470.34375 463.785156 470.683594 465.566406 471.140625 C 467.300781 472.234375 469.152344 473.226562 470.902344 474.109375 C 468.808594 473.523438 466.828125 472.839844 464.847656 472.15625 C 462.984375 471.371094 461.234375 470.492188 459.382812 469.496094 Z M 467.675781 471.511719 C 470.097656 472.015625 472.632812 472.421875 475.167969 472.828125 C 477.199219 474.265625 479.242188 475.488281 481.289062 476.710938 C 479.390625 476.355469 477.398438 475.882812 475.515625 475.3125 L 473.730469 474.855469 C 471.671875 473.847656 469.609375 472.835938 467.5625 471.613281 Z M 482.8125 477.789062 C 484.546875 478.882812 486.394531 479.875 488.34375 480.984375 C 486.152344 480.285156 484.058594 479.699219 481.867188 479 C 480 478.21875 478.25 477.335938 476.5 476.457031 C 478.59375 477.042969 480.6875 477.628906 482.8125 477.789062 Z M 499.304688 484.484375 C 501.136719 485.691406 502.988281 486.6875 504.835938 487.683594 C 502.953125 487.113281 501.074219 486.542969 499.09375 485.859375 C 497.113281 485.175781 495.378906 484.082031 493.628906 483.203125 C 495.507812 483.773438 497.292969 484.226562 499.304688 484.484375 Z M 501.203125 484.84375 C 521.125 488.59375 541.464844 488.203125 561.257812 483.714844 C 585.628906 478.070312 606.167969 466.578125 620.859375 450.371094 C 643.855469 424.632812 650.902344 390.742188 654.648438 360.878906 C 655.308594 354.945312 656.085938 348.910156 656.746094 342.972656 C 657.601562 334.484375 658.570312 325.898438 659.863281 317.230469 L 662.6875 315.199219 C 662.097656 324.453125 661.949219 333.53125 661.683594 342.703125 C 661.464844 348.460938 661.441406 354.445312 661.222656 360.199219 C 660.058594 391.222656 655.796875 426.5 633.847656 453.917969 C 606.964844 487.164062 555.234375 501.21875 507.355469 488.300781 C 505.390625 487.40625 503.230469 486.277344 501.203125 484.84375 Z M 576.082031 489.859375 C 600.484375 483.789062 620.644531 471.628906 634.4375 454.605469 C 656.5 427.085938 660.664062 391.695312 661.941406 360.574219 C 662.160156 354.820312 662.300781 348.738281 662.519531 342.980469 C 662.683594 333.691406 662.851562 324.40625 663.554688 315.050781 L 666.382812 313.019531 C 666.496094 322.863281 667.03125 332.738281 667.6875 342.515625 C 668.003906 348.207031 668.308594 354.109375 668.613281 360.011719 C 669.851562 390.359375 668.652344 428.964844 647.523438 458.265625 C 622.101562 493.441406 568.6875 508.542969 520.59375 494.21875 C 518.921875 493.664062 517.253906 493.109375 515.472656 492.65625 C 513.722656 491.773438 511.96875 490.894531 510.21875 490.015625 C 531.746094 495.167969 554.410156 495.167969 576.082031 489.859375 Z M 663.292969 314.28125 L 663.5 311.519531 L 665.886719 309.667969 L 666.113281 309.46875 C 666.148438 310.433594 666.183594 311.398438 666.214844 312.363281 Z M 666.6875 308.980469 L 669.300781 306.933594 L 669.5 309.941406 L 666.675781 311.972656 Z M 666.75 308.128906 L 666.746094 305.347656 L 669.144531 303.285156 C 669.179688 304.25 669.214844 305.214844 669.25 306.179688 Z M 669.621094 302.679688 L 671.90625 300.714844 C 694.667969 280.945312 713.859375 266.039062 732.203125 253.847656 C 740.417969 248.375 748.585938 243.539062 756.265625 239.523438 C 771.738281 231.390625 787.753906 224.582031 804.308594 219.097656 C 806.613281 218.3125 809.128906 217.539062 811.433594 216.75 L 811.53125 216.867188 C 809.328125 217.769531 807.023438 218.554688 804.816406 219.457031 C 788.261719 226.332031 772.363281 234.433594 756.925781 243.527344 C 749.429688 247.988281 741.570312 252.953125 733.125 258.621094 C 711.726562 273.042969 690.742188 289.09375 671.207031 304.296875 L 669.625 305.460938 Z M 812.300781 216.601562 Z M 813.28125 216.355469 Z M 672.652344 253.945312 C 680.15625 221.054688 707.882812 186.480469 744.152344 187.507812 C 762.824219 187.957031 779.945312 197.695312 795 206.421875 C 795.097656 206.539062 795.097656 206.539062 795.199219 206.652344 C 780.242188 199.429688 763.421875 191.421875 745.222656 191.757812 C 735.6875 192 726.421875 194.402344 718.074219 198.796875 C 696.945312 209.601562 679.304688 232.320312 672.003906 258.28125 C 671.742188 258.902344 671.695312 259.539062 671.53125 260.277344 C 671.921875 257.953125 672.394531 255.957031 672.652344 253.945312 Z M 485.585938 409.792969 C 533.113281 394.78125 577.226562 371.175781 619.453125 344.21875 C 609.601562 351.492188 599.558594 358.535156 589.414062 365.46875 C 556.761719 387.375 528.039062 402.523438 499.015625 413.160156 C 479.78125 420.152344 459.953125 425.070312 439.550781 427.695312 C 437.894531 425.539062 436.242188 423.382812 434.699219 421.128906 C 451.980469 418.800781 469.046875 415.066406 485.585938 409.792969 Z M 311.976562 235.363281 C 332.078125 250.886719 346.515625 272.074219 357.925781 290.894531 C 368.007812 307.480469 377.488281 324.980469 386.472656 341.90625 C 399.3125 365.859375 412.53125 390.484375 428.132812 413.257812 C 429.867188 415.742188 431.703125 418.339844 433.441406 420.820312 C 429.878906 421.300781 426.3125 421.78125 422.652344 422.144531 C 419.242188 417.71875 415.738281 413.175781 412.460938 408.4375 C 397.039062 386.109375 383.804688 361.695312 371.144531 338.183594 C 362.519531 322.136719 353.601562 305.75 344.09375 290.066406 C 332.960938 271.800781 319.128906 251.082031 299.648438 235.820312 C 291.167969 229.195312 281.742188 223.777344 271.546875 220.015625 C 265.722656 217.867188 259.523438 216.433594 253.277344 215.640625 C 272.832031 214.339844 293.6875 221.261719 311.976562 235.363281 Z M 246.015625 215.523438 L 244.285156 215.820312 L 243.515625 216.082031 C 242.777344 215.917969 241.929688 215.855469 241.078125 215.789062 C 242.695312 215.589844 244.414062 215.507812 246.015625 215.523438 Z M 233.917969 215.785156 C 233.050781 215.933594 232.183594 216.082031 231.316406 216.230469 C 230.367188 216.050781 229.421875 215.871094 228.355469 215.792969 C 230.285156 215.722656 232.101562 215.753906 233.917969 215.785156 Z M 221.929688 215.949219 C 220.949219 216.195312 219.984375 216.226562 219.003906 216.476562 C 218.054688 216.296875 217.207031 216.230469 216.257812 216.054688 C 218.203125 215.773438 220.019531 215.804688 221.929688 215.949219 Z M 204.730469 215.824219 C 206.332031 215.839844 207.933594 215.851562 209.535156 215.867188 C 208.457031 216 207.589844 216.148438 206.609375 216.394531 C 205.660156 216.214844 204.714844 216.035156 203.765625 215.859375 Z M 194.804688 215.609375 C 195.554688 215.558594 196.292969 215.722656 197.140625 215.785156 C 196.0625 215.917969 195.082031 216.164062 194.003906 216.296875 C 192.957031 216.003906 191.894531 215.921875 190.847656 215.628906 C 192.238281 215.628906 193.625 215.625 194.804688 215.609375 Z M 181.3125 215.871094 C 180.265625 215.578125 179.320312 215.402344 178.273438 215.109375 C 180.300781 215.15625 182.441406 215.101562 184.566406 215.261719 C 183.472656 215.609375 182.394531 215.742188 181.3125 215.871094 Z M 171.664062 214.824219 C 170.585938 214.957031 169.507812 215.089844 168.328125 215.105469 C 167.28125 214.8125 166.335938 214.632812 165.289062 214.339844 L 165.074219 214.324219 C 167.199219 214.484375 169.441406 214.546875 171.664062 214.824219 Z M 158.371094 213.925781 C 157.191406 213.945312 156.113281 214.078125 154.820312 214.191406 C 153.675781 213.785156 152.628906 213.492188 151.46875 213.296875 C 153.921875 213.375 156.046875 213.535156 158.371094 213.925781 Z M 144.910156 212.375 C 143.734375 212.394531 142.554688 212.410156 141.265625 212.527344 C 140.117188 212.121094 138.972656 211.710938 137.714844 211.402344 C 140.152344 211.695312 142.589844 211.984375 144.910156 212.375 Z M 131.074219 210.152344 C 129.796875 210.058594 128.410156 210.058594 127.230469 210.078125 C 125.988281 209.554688 124.84375 209.148438 123.597656 208.628906 C 126.019531 209.128906 128.652344 209.648438 131.074219 210.152344 Z M 116.761719 207.148438 C 115.484375 207.050781 114.210938 206.957031 112.933594 206.859375 C 111.804688 206.238281 110.5625 205.71875 109.320312 205.195312 C 111.953125 205.714844 114.355469 206.433594 116.761719 207.148438 Z M 94.9375 200.261719 C 97.554688 200.992188 100.042969 202.039062 102.53125 203.082031 C 101.269531 202.769531 99.894531 202.5625 98.621094 202.464844 C 97.507812 201.632812 96.28125 200.898438 94.9375 200.261719 Z M 100.273438 203.230469 C 102.171875 203.585938 104.066406 203.945312 105.851562 204.398438 C 107.617188 205.066406 109.367188 205.949219 111.023438 206.714844 C 109.109375 206.570312 107.195312 206.425781 105.265625 206.492188 C 103.644531 205.300781 102.007812 204.324219 100.273438 203.230469 Z M 106.394531 207.113281 C 108.519531 207.273438 110.648438 207.433594 112.675781 207.480469 C 114.636719 208.378906 116.488281 209.371094 118.335938 210.367188 C 116.195312 210.417969 114.152344 210.585938 111.894531 210.734375 C 110.160156 209.644531 108.34375 208.222656 106.394531 207.113281 Z M 112.695312 211.4375 C 114.953125 211.289062 117.210938 211.136719 119.464844 210.988281 C 121.414062 212.097656 123.359375 213.207031 125.308594 214.316406 C 125.308594 214.316406 125.40625 214.429688 125.40625 214.429688 C 123.132812 214.792969 120.746094 215.253906 118.460938 215.828125 C 116.757812 214.3125 114.839844 212.777344 112.695312 211.4375 Z M 119.164062 216.417969 C 121.550781 215.957031 123.9375 215.496094 126.207031 215.132812 C 128.140625 216.453125 130.070312 217.773438 132.003906 219.097656 C 129.601562 219.769531 127.296875 220.558594 124.78125 221.332031 C 123.109375 219.386719 121.191406 217.851562 119.164062 216.417969 Z M 125.402344 221.589844 C 127.917969 220.820312 130.222656 220.03125 132.625 219.359375 C 134.65625 220.792969 136.472656 222.214844 138.386719 223.75 C 135.855469 224.734375 133.535156 225.734375 130.886719 226.816406 C 129.414062 225.101562 127.511719 223.355469 125.402344 221.589844 Z M 133.671875 229.59375 C 132.984375 228.792969 132.277344 228.203125 131.589844 227.402344 C 134.027344 226.304688 136.558594 225.320312 139.089844 224.335938 C 141.007812 225.871094 142.808594 227.503906 144.707031 229.25 C 142.257812 230.5625 139.59375 231.855469 137.027344 233.265625 C 136.0625 231.910156 134.867188 230.75 133.671875 229.59375 Z M 137.535156 233.625 C 140.101562 232.214844 142.648438 231.019531 145.214844 229.609375 C 147.113281 231.355469 148.898438 233.203125 150.683594 235.046875 L 145.523438 238.292969 L 142.941406 239.914062 C 141.285156 237.757812 139.519531 235.699219 137.535156 233.625 Z M 143.433594 240.484375 L 146.015625 238.863281 L 151.390625 235.632812 C 153.273438 237.59375 154.941406 239.539062 156.710938 241.59375 L 154.570312 243.039062 L 148.707031 247.085938 C 147.054688 244.929688 145.300781 242.65625 143.433594 240.484375 Z M 149.085938 247.753906 C 151.109375 246.410156 153.039062 244.953125 154.949219 243.707031 L 157.203125 242.167969 C 157.890625 242.96875 158.578125 243.769531 159.367188 244.683594 C 160.445312 245.941406 161.511719 247.410156 162.59375 248.667969 C 159.867188 250.8125 157.253906 252.859375 154.523438 255.007812 C 152.574219 252.507812 150.9375 250.140625 149.085938 247.753906 Z M 154.589844 255.546875 C 157.320312 253.402344 160.046875 251.253906 162.773438 249.109375 C 164.527344 251.378906 166.28125 253.648438 168.015625 256.132812 C 165.273438 258.492188 162.53125 260.851562 159.785156 263.207031 C 158.164062 260.628906 156.328125 258.03125 154.589844 255.546875 Z M 168.296875 256.6875 C 170.03125 259.171875 171.769531 261.65625 173.394531 264.234375 C 170.632812 266.808594 167.875 269.378906 165.015625 271.835938 C 163.296875 269.140625 161.785156 266.460938 159.953125 263.863281 C 162.921875 261.308594 165.667969 258.949219 168.296875 256.6875 Z M 217.828125 354.078125 C 202.496094 336.242188 190.492188 315.34375 178.867188 295.117188 C 174.523438 287.519531 170.179688 279.921875 165.621094 272.308594 C 168.480469 269.851562 171.238281 267.28125 174 264.710938 C 178.113281 271.113281 181.816406 277.273438 185.339844 282.992188 C 188.457031 288.464844 191.671875 294.054688 194.785156 299.527344 C 206.296875 319.851562 218.394531 340.863281 233.695312 359.125 C 251.46875 380.03125 273.503906 396.875 298.390625 408.484375 C 267.699219 397.292969 239.957031 379.585938 217.828125 354.078125 Z M 313.460938 414.21875 C 314.082031 414.476562 314.816406 414.640625 315.554688 414.804688 L 317.304688 415.683594 C 316.0625 415.164062 314.703125 414.738281 313.460938 414.21875 Z M 331.128906 420.898438 L 333.4375 421.5 C 334.15625 421.875 334.777344 422.136719 335.5 422.511719 C 334.042969 421.972656 332.585938 421.433594 331.128906 420.898438 Z M 348.898438 427.691406 C 349.734375 427.96875 350.679688 428.148438 351.613281 428.539062 C 352.546875 428.929688 353.054688 429.289062 353.886719 429.566406 C 352.234375 428.796875 350.566406 428.246094 348.898438 427.691406 Z M 367.613281 434.664062 L 369.710938 435.25 L 371.769531 436.261719 Z M 384.859375 441.3125 C 385.695312 441.589844 386.527344 441.867188 387.265625 442.027344 C 388 442.191406 388.605469 442.664062 389.328125 443.039062 C 387.871094 442.5 386.414062 441.964844 384.859375 441.3125 Z M 402.316406 447.976562 C 403.152344 448.253906 403.984375 448.527344 404.933594 448.707031 L 407.308594 449.847656 C 405.523438 449.394531 403.871094 448.628906 402.316406 447.976562 Z M 419.546875 454.835938 C 420.378906 455.113281 421.425781 455.40625 422.261719 455.683594 C 423.09375 455.960938 423.800781 456.546875 424.730469 456.9375 C 423.078125 456.171875 421.3125 455.503906 419.546875 454.835938 Z M 436.789062 461.484375 L 439.097656 462.085938 C 439.816406 462.460938 440.535156 462.835938 441.257812 463.210938 C 439.6875 462.769531 438.132812 462.121094 436.789062 461.484375 Z M 453.28125 468.179688 C 454.328125 468.472656 455.375 468.765625 456.421875 469.058594 C 457.242188 469.550781 458.175781 469.941406 458.992188 470.429688 C 457.011719 469.746094 455.148438 468.964844 453.28125 468.179688 Z M 470.414062 474.925781 L 473.457031 475.691406 C 474.488281 476.195312 475.515625 476.703125 476.335938 477.191406 C 474.355469 476.507812 472.277344 475.710938 470.414062 474.925781 Z M 487.117188 481.640625 C 488.164062 481.933594 489.210938 482.226562 490.257812 482.519531 L 490.683594 482.550781 C 491.8125 483.171875 492.84375 483.675781 493.972656 484.296875 C 491.683594 483.484375 489.410156 482.457031 487.117188 481.640625 Z M 504.25 488.386719 C 504.558594 488.515625 504.871094 488.648438 505.296875 488.679688 C 505.917969 488.941406 506.554688 488.988281 507.175781 489.25 C 508.09375 489.851562 509.027344 490.246094 510.058594 490.75 C 508.191406 489.96875 506.210938 489.285156 504.25 488.386719 Z M 673.390625 341.984375 C 674.136719 347.707031 674.964844 353.753906 675.59375 359.574219 C 679.304688 391.179688 680.96875 431.5 660.789062 462.367188 C 633.578125 504.25 577.097656 513.238281 535.515625 500.476562 C 530.394531 498.914062 525.402344 497.039062 520.644531 494.96875 C 543.5625 501.511719 567.792969 501.953125 590.90625 496 C 615.226562 489.605469 634.910156 476.660156 647.914062 458.722656 C 669.160156 429.324219 670.375 390.503906 669.035156 360.042969 C 668.832031 354.253906 668.429688 348.238281 668.109375 342.546875 C 667.574219 332.671875 666.9375 322.683594 666.839844 312.625 L 669.664062 310.59375 C 670.578125 321.140625 672.035156 331.617188 673.390625 341.984375 Z M 734.851562 264.097656 C 723.125 272.191406 711.265625 280.597656 699.75 288.707031 C 690.03125 295.667969 680.214844 302.519531 670.285156 309.464844 L 670.082031 306.457031 L 672.011719 305 C 691.542969 289.796875 712.53125 273.742188 733.929688 259.324219 C 742.375 253.65625 750.230469 248.6875 757.730469 244.230469 C 773.054688 235.234375 788.949219 227.132812 805.503906 220.257812 C 807.824219 219.257812 810.242188 218.371094 812.5625 217.371094 C 812.660156 217.484375 812.660156 217.484375 812.761719 217.601562 C 784.640625 230.441406 758.648438 247.613281 734.851562 264.097656 Z M 813.332031 217.109375 C 813.332031 217.109375 813.234375 216.992188 813.234375 216.992188 L 813.347656 216.894531 L 813.445312 217.011719 Z M 814.328125 216.648438 L 814.230469 216.535156 L 814.34375 216.4375 C 814.34375 216.4375 814.441406 216.550781 814.441406 216.550781 Z M 815.210938 216.289062 Z M 933.347656 214.734375 C 918.019531 209.621094 902.101562 206.601562 885.914062 205.808594 C 867.371094 205.046875 848.847656 206.855469 830.785156 211.050781 C 849.285156 205.285156 868.445312 202.136719 887.820312 201.78125 C 904.074219 201.726562 920.25 204.125 935.710938 208.925781 C 978.4375 222.097656 1010.53125 250.175781 1019.738281 282.621094 C 1008.167969 254.59375 974.671875 228.117188 933.347656 214.734375 Z M 989.710938 237.058594 C 973.929688 223.785156 955.632812 214.066406 935.984375 208.09375 C 920.429688 203.175781 904.253906 200.777344 888 200.832031 C 869.589844 201.152344 851.199219 204.039062 833.480469 209.328125 C 851.539062 202.355469 870.566406 198.125 889.921875 196.59375 C 943.535156 193.054688 1007.613281 223.660156 1019.652344 279.515625 C 1014.492188 264.265625 1004.269531 249.597656 989.710938 237.058594 Z M 989.710938 237.058594 " fill-opacity="1" fill-rule="nonzero"/></g></g></g></g></svg>