<svg xmlns="http://www.w3.org/2000/svg" xmlns:xlink="http://www.w3.org/1999/xlink" width="1440" zoomAndPan="magnify" viewBox="0 0 1080 165.000002" height="220" preserveAspectRatio="xMidYMid meet" version="1.0"><defs><filter x="0%" y="0%" width="100%" height="100%" id="f5cf1f0c69"><feColorMatrix values="0 0 0 0 1 0 0 0 0 1 0 0 0 0 1 0 0 0 1 0" color-interpolation-filters="sRGB"/></filter><g/><clipPath id="4aa29dc9b8"><path d="M 3.253906 0 L 692 0 L 692 132 L 3.253906 132 Z M 3.253906 0 " clip-rule="nonzero"/></clipPath><mask id="77d61d6b79"><g filter="url(#f5cf1f0c69)"><rect x="-108" width="1296" fill="#000000" y="-16.5" height="198.000002" fill-opacity="0.75"/></g></mask><clipPath id="6313a24f80"><path d="M 0.253906 0 L 688 0 L 688 131 L 0.253906 131 Z M 0.253906 0 " clip-rule="nonzero"/></clipPath><clipPath id="a0d034be88"><rect x="0" width="689" y="0" height="132"/></clipPath><clipPath id="4aed736931"><path d="M 3.253906 11 L 394 11 L 394 132 L 3.253906 132 Z M 3.253906 11 " clip-rule="nonzero"/></clipPath><mask id="271ee35658"><g filter="url(#f5cf1f0c69)"><rect x="-108" width="1296" fill="#000000" y="-16.5" height="198.000002" fill-opacity="0.75"/></g></mask><clipPath id="4da792f947"><path d="M 0.253906 1 L 390 1 L 390 120 L 0.253906 120 Z M 0.253906 1 " clip-rule="nonzero"/></clipPath><clipPath id="e614be87af"><rect x="0" width="391" y="0" height="121"/></clipPath><clipPath id="e4b5afed4b"><path d="M 3.253906 16 L 1076.746094 16 L 1076.746094 164.007812 L 3.253906 164.007812 Z M 3.253906 16 " clip-rule="nonzero"/></clipPath><clipPath id="9948cca3ea"><path d="M 3.253906 3 L 1076.746094 3 L 1076.746094 160 L 3.253906 160 Z M 3.253906 3 " clip-rule="nonzero"/></clipPath><clipPath id="a142b67a90"><path d="M 0.109375 2 L 2 2 L 2 4 L 0.109375 4 Z M 0.109375 2 " clip-rule="nonzero"/></clipPath><clipPath id="e410ce3534"><rect x="0" width="3" y="0" height="11"/></clipPath></defs><g clip-path="url(#4aa29dc9b8)"><g mask="url(#77d61d6b79)"><g transform="matrix(1, 0, 0, 1, 3, 0.000000000000012869)"><g clip-path="url(#a0d034be88)"><g clip-path="url(#6313a24f80)"><path fill="#7b2ff7" d="M 687.773438 29.992188 C 681.261719 31.441406 674.574219 33.066406 667.882812 34.511719 C 665.171875 35.238281 662.460938 35.777344 659.566406 36.503906 C 578.210938 56.929688 485.285156 88.207031 389.828125 109.179688 C 286.59375 131.78125 180.289062 142.265625 82.480469 113.15625 C 81.035156 112.796875 79.769531 112.433594 78.503906 111.890625 C 40.175781 100.140625 3.65625 82.421875 -31.058594 56.929688 L -31.058594 -26.234375 C 189.871094 186.199219 469.375 53.136719 668.246094 31.800781 C 670.597656 31.621094 672.945312 31.257812 675.296875 31.078125 C 676.5625 30.898438 677.828125 30.898438 679.09375 30.714844 C 681.988281 30.535156 684.878906 30.175781 687.773438 29.992188 Z M 687.773438 29.992188 " fill-opacity="1" fill-rule="nonzero"/></g></g></g></g></g><g clip-path="url(#4aed736931)"><g mask="url(#271ee35658)"><g transform="matrix(1, 0, 0, 1, 3, 11)"><g clip-path="url(#e614be87af)"><g clip-path="url(#4da792f947)"><path fill="#1800ad" d="M 389.644531 98.179688 C 286.414062 120.78125 180.109375 131.265625 82.300781 102.15625 C 80.851562 101.796875 79.585938 101.433594 78.320312 100.890625 C 40.175781 89.140625 3.65625 71.421875 -31.058594 45.929688 L -31.058594 1.277344 C 61.507812 100.710938 234.886719 112.464844 389.644531 98.179688 Z M 389.644531 98.179688 " fill-opacity="1" fill-rule="nonzero"/></g></g></g></g></g><g clip-path="url(#e4b5afed4b)"><path fill="#2c2460" d="M 711.019531 25.835938 C 704.332031 27.101562 697.640625 28.546875 690.773438 29.992188 C 684.261719 31.441406 677.574219 33.066406 670.882812 34.511719 C 668.171875 35.238281 665.460938 35.777344 662.566406 36.503906 C 581.210938 56.929688 488.285156 88.207031 392.828125 109.179688 C 289.59375 131.78125 183.289062 142.265625 85.480469 113.15625 C 84.035156 112.796875 82.769531 112.433594 81.503906 111.890625 C 43.175781 100.140625 6.65625 82.421875 -28.058594 56.929688 L -28.058594 277.859375 L 1078.027344 277.859375 L 1078.027344 76.457031 C 1032.289062 54.21875 884.582031 -7.609375 711.019531 25.835938 Z M 711.019531 25.835938 " fill-opacity="1" fill-rule="nonzero"/></g><g clip-path="url(#9948cca3ea)"><path fill="#7b2ff7" d="M 1078.027344 63.441406 L 1078.027344 64.34375 C 1059.40625 54.761719 1024.152344 38.308594 978.230469 25.292969 C 937.371094 13.722656 896.332031 6.851562 855.835938 5.226562 C 805.214844 3.054688 755.675781 8.839844 708.488281 22.398438 C 699.8125 24.929688 690.953125 27.644531 682.09375 30.714844 C 678.296875 31.980469 674.679688 33.246094 670.882812 34.695312 C 639.246094 45.902344 606.160156 59.824219 571.8125 74.46875 C 561.144531 78.988281 550.296875 83.507812 539.269531 88.207031 C 461.890625 120.207031 377.460938 152.027344 291.582031 158.355469 C 285.617188 158.898438 279.46875 159.078125 273.503906 159.261719 C 269.34375 159.441406 265.1875 159.441406 261.027344 159.441406 C 222.339844 159.441406 185.277344 153.65625 149.84375 142.265625 C 126.339844 134.671875 103.558594 124.546875 81.320312 111.890625 C 43.355469 90.199219 7.015625 61.089844 -27.875 24.390625 L -27.875 23.125 C 8.101562 61.269531 45.707031 91.28125 85.300781 113.15625 C 107.71875 125.632812 130.679688 135.574219 154.363281 142.808594 C 192.328125 154.558594 231.742188 159.621094 273.324219 158.355469 C 277.660156 158.175781 282.183594 157.996094 286.519531 157.8125 C 372.398438 152.390625 457.007812 120.933594 534.386719 88.933594 C 546.863281 83.871094 558.972656 78.625 570.90625 73.566406 C 602.546875 60.1875 632.917969 47.53125 662.027344 36.683594 C 667.269531 34.695312 672.691406 32.886719 677.9375 31.078125 C 688.058594 27.644531 698.003906 24.390625 707.945312 21.496094 C 755.316406 7.9375 804.851562 2.152344 855.472656 4.320312 C 895.972656 5.949219 937.191406 12.820312 978.050781 24.390625 C 1024.152344 37.40625 1059.226562 53.675781 1078.027344 63.441406 Z M 1078.027344 63.441406 " fill-opacity="1" fill-rule="nonzero"/></g><g transform="matrix(1, 0, 0, 1, 548, 36)"><g clip-path="url(#e410ce3534)"><g clip-path="url(#a142b67a90)"><g fill="#0d2647" fill-opacity="1"><g transform="translate(2.217564, 3.006765)"><g><path d="M -0.890625 -0.03125 C -0.765625 -0.03125 -0.664062 0.00390625 -0.59375 0.078125 C -0.519531 0.148438 -0.484375 0.242188 -0.484375 0.359375 C -0.484375 0.472656 -0.519531 0.566406 -0.59375 0.640625 C -0.664062 0.710938 -0.765625 0.75 -0.890625 0.75 C -1.023438 0.75 -1.128906 0.710938 -1.203125 0.640625 C -1.273438 0.578125 -1.3125 0.484375 -1.3125 0.359375 C -1.3125 0.242188 -1.273438 0.148438 -1.203125 0.078125 C -1.128906 0.00390625 -1.023438 -0.03125 -0.890625 -0.03125 Z M -0.890625 -0.03125 "/></g></g></g></g></g></g></svg>